<?xml version="1.0" encoding="UTF-8" standalone="no"?>
<!-- Created with Inkscape (http://www.inkscape.org/) -->

<svg
   width="13.229168mm"
   height="13.229167mm"
   viewBox="0 0 13.229168 13.229167"
   version="1.1"
   id="svg4683"
   sodipodi:docname="curioso.svg"
   inkscape:version="1.1 (c68e22c387, 2021-05-23)"
   xmlns:inkscape="http://www.inkscape.org/namespaces/inkscape"
   xmlns:sodipodi="http://sodipodi.sourceforge.net/DTD/sodipodi-0.dtd"
   xmlns="http://www.w3.org/2000/svg"
   xmlns:svg="http://www.w3.org/2000/svg">
  <sodipodi:namedview
     id="namedview4685"
     pagecolor="#ffffff"
     bordercolor="#999999"
     borderopacity="1"
     inkscape:pageshadow="0"
     inkscape:pageopacity="0"
     inkscape:pagecheckerboard="0"
     inkscape:document-units="mm"
     showgrid="false"
     inkscape:zoom="5.8725028"
     inkscape:cx="-0.25542772"
     inkscape:cy="13.537669"
     inkscape:window-width="1920"
     inkscape:window-height="1009"
     inkscape:window-x="-8"
     inkscape:window-y="-8"
     inkscape:window-maximized="1"
     inkscape:current-layer="layer1" />
  <defs
     id="defs4680" />
  <g
     inkscape:label="Capa 1"
     inkscape:groupmode="layer"
     id="layer1"
     transform="translate(-36.043689,-73.889564)">
    <path
       id="path4888"
       style="fill:#ffffff;stroke:#000000;stroke-width:0;stroke-linecap:square;stroke-linejoin:round;paint-order:fill markers stroke;stop-color:#000000"
       d="M 25 0 A 24.999999 24.999997 0 0 0 0 25 A 24.999999 24.999997 0 0 0 25 50 A 24.999999 24.999997 0 0 0 50 25 A 24.999999 24.999997 0 0 0 25 0 z M 26.226562 10.697266 L 29.402344 10.900391 L 32.578125 11.103516 L 34.683594 12.621094 L 36.789062 14.140625 L 38.138672 16.707031 L 39.490234 19.275391 L 39.490234 21.587891 L 39.490234 23.898438 L 38.138672 26.5625 L 36.789062 29.226562 L 34.679688 30.6875 L 32.570312 32.150391 L 29.175781 32.341797 L 25.78125 32.533203 L 23.462891 31.238281 L 21.144531 29.943359 L 20.744141 30.570312 L 20.34375 31.197266 L 20.603516 31.902344 L 20.863281 32.607422 L 17.542969 35.955078 L 14.220703 39.302734 L 12.955078 39.302734 L 11.689453 39.302734 L 11.099609 38.712891 L 10.509766 38.123047 L 10.509766 37.191406 L 10.509766 36.259766 L 13.808594 32.841797 L 17.107422 29.425781 L 18.240234 29.708984 L 19.373047 29.994141 L 19.642578 29.292969 L 19.910156 28.591797 L 18.935547 26.677734 C 18.398937 25.625873 17.812442 23.982881 17.632812 23.025391 L 17.306641 21.283203 L 17.824219 19.359375 L 18.34375 17.435547 L 19.707031 15.328125 L 21.070312 13.222656 L 23.648438 11.960938 L 26.226562 10.697266 z M 25.392578 12.287109 L 23.337891 13.775391 L 21.283203 15.263672 L 20.347656 16.802734 L 19.410156 18.34375 L 19.101562 20.171875 L 18.792969 22 L 19.351562 24.074219 L 19.910156 26.150391 L 21.71875 28.080078 L 23.527344 30.009766 L 25.492188 30.726562 L 27.455078 31.443359 L 29.419922 31.181641 L 31.384766 30.917969 L 33.558594 29.583984 L 35.730469 28.25 L 36.873047 26.085938 L 38.015625 23.919922 L 38.015625 21.697266 L 38.015625 19.472656 L 36.962891 17.296875 L 35.910156 15.121094 L 33.673828 13.705078 L 31.439453 12.287109 L 28.416016 12.287109 L 25.392578 12.287109 z M 26.228516 14.251953 L 28.683594 14.251953 L 31.140625 14.251953 L 31.140625 15.517578 L 31.140625 16.785156 L 32.556641 16.474609 L 33.974609 16.162109 L 35.068359 17.931641 L 36.162109 19.701172 L 35.369141 20.576172 C 34.371085 21.679008 34.375267 22.098667 35.388672 22.839844 L 36.199219 23.433594 L 35.066406 25.449219 L 33.933594 27.464844 L 33.060547 26.998047 C 32.580479 26.741039 31.951979 26.53125 31.664062 26.53125 L 31.140625 26.53125 L 31.140625 27.759766 L 31.140625 28.986328 L 28.71875 28.986328 L 26.296875 28.986328 L 26.138672 27.880859 L 25.982422 26.777344 L 25.246094 26.84375 C 24.840993 26.881167 24.176714 27.047914 23.771484 27.212891 L 23.035156 27.511719 L 21.941406 25.494141 L 20.847656 23.476562 L 21.941406 22.554688 L 23.035156 21.632812 L 21.875 20.722656 L 20.712891 19.810547 L 22.025391 17.732422 L 23.337891 15.652344 L 24.041016 16.234375 L 24.742188 16.816406 L 25.484375 16.53125 L 26.228516 16.246094 L 26.228516 15.248047 L 26.228516 14.251953 z M 27.701172 15.724609 L 27.701172 16.443359 L 27.701172 17.164062 L 26.751953 17.671875 C 26.229399 17.95156 25.247513 18.179688 24.570312 18.179688 L 23.337891 18.179688 L 23.060547 18.632812 L 22.78125 19.083984 L 23.521484 19.824219 L 24.263672 20.566406 L 24.263672 21.769531 L 24.263672 22.972656 L 23.519531 23.587891 L 22.777344 24.205078 L 23.330078 24.871094 L 23.882812 25.537109 L 24.347656 25.251953 L 24.810547 24.964844 L 26.027344 25.269531 L 27.244141 25.576172 L 27.703125 26.78125 L 28.162109 27.986328 L 28.914062 27.697266 L 29.666016 27.408203 L 29.666016 26.78125 L 29.666016 26.152344 L 30.828125 25.390625 L 31.990234 24.630859 L 32.470703 25.109375 L 32.949219 25.589844 L 33.595703 24.8125 L 34.242188 24.033203 L 33.673828 23.464844 L 33.105469 22.896484 L 33.105469 21.619141 L 33.105469 20.341797 L 33.650391 19.794922 L 34.197266 19.248047 L 33.853516 18.691406 L 33.507812 18.132812 L 32.693359 18.251953 C 32.244518 18.316772 31.379331 18.201133 30.771484 17.996094 L 29.666016 17.623047 L 29.666016 16.673828 L 29.666016 15.724609 L 28.683594 15.724609 L 27.701172 15.724609 z M 28.472656 19.162109 L 29.175781 19.162109 L 30.158203 20.144531 C 31.340757 21.327081 31.35903 21.577537 30.375 22.982422 L 29.611328 24.074219 L 28.691406 24.074219 L 27.771484 24.074219 L 27 23.302734 L 26.228516 22.53125 L 26.228516 21.619141 L 26.228516 20.707031 L 27 19.935547 C 27.42452 19.51103 28.086714 19.162109 28.472656 19.162109 z M 27.960938 20.882812 L 27.787109 21.787109 L 27.613281 22.691406 L 28.515625 22.515625 L 29.419922 22.341797 L 29.419922 21.611328 L 29.419922 20.882812 L 28.691406 20.882812 L 27.960938 20.882812 z M 17.761719 31.443359 C 17.15007 31.443359 13.089121 35.278719 12.419922 36.488281 L 11.9375 37.357422 L 12.234375 37.837891 C 12.728696 38.637733 13.072202 38.428695 15.980469 35.550781 L 18.777344 32.783203 L 18.521484 32.113281 C 18.380017 31.744777 18.038055 31.443359 17.761719 31.443359 z "
       transform="matrix(0.26458333,0,0,0.26458333,36.043689,73.889564)" />
  </g>
</svg>
