<?xml version="1.0" encoding="UTF-8" standalone="no"?>
<!-- Created with Inkscape (http://www.inkscape.org/) -->

<svg
   width="13.229168mm"
   height="13.229167mm"
   viewBox="0 0 13.229168 13.229167"
   version="1.1"
   id="svg4683"
   sodipodi:docname="ethic.svg"
   inkscape:version="1.1 (c68e22c387, 2021-05-23)"
   xmlns:inkscape="http://www.inkscape.org/namespaces/inkscape"
   xmlns:sodipodi="http://sodipodi.sourceforge.net/DTD/sodipodi-0.dtd"
   xmlns="http://www.w3.org/2000/svg"
   xmlns:svg="http://www.w3.org/2000/svg">
  <sodipodi:namedview
     id="namedview4685"
     pagecolor="#ffffff"
     bordercolor="#999999"
     borderopacity="1"
     inkscape:pageshadow="0"
     inkscape:pageopacity="0"
     inkscape:pagecheckerboard="0"
     inkscape:document-units="mm"
     showgrid="false"
     inkscape:zoom="5.8725028"
     inkscape:cx="-0.25542772"
     inkscape:cy="13.537669"
     inkscape:window-width="1920"
     inkscape:window-height="1009"
     inkscape:window-x="-8"
     inkscape:window-y="-8"
     inkscape:window-maximized="1"
     inkscape:current-layer="layer1" />
  <defs
     id="defs4680" />
  <g
     inkscape:label="Capa 1"
     inkscape:groupmode="layer"
     id="layer1"
     transform="translate(-36.043689,-73.889564)">
    <path
       id="path4888"
       style="fill:#ffffff;stroke:#000000;stroke-width:0;stroke-linecap:square;stroke-linejoin:round;paint-order:fill markers stroke;stop-color:#000000"
       d="M 25 0 A 24.999999 24.999997 0 0 0 0 25 A 24.999999 24.999997 0 0 0 25 50 A 24.999999 24.999997 0 0 0 50 25 A 24.999999 24.999997 0 0 0 25 0 z M 15.513672 7.3261719 L 25.001953 7.3261719 C 30.220026 7.3261719 34.48764 7.3944211 34.486328 7.4785156 C 34.485017 7.5620054 33.404259 10.372637 32.085938 13.724609 L 29.689453 19.820312 L 28.679688 20.027344 L 27.669922 20.236328 L 28.068359 22.359375 C 28.287194 23.527204 28.850461 27.410331 29.320312 30.988281 L 30.175781 37.494141 L 27.634766 40.083984 C 26.237202 41.50856 24.931738 42.673828 24.734375 42.673828 C 24.537008 42.673828 23.321878 41.595072 22.035156 40.277344 L 19.697266 37.880859 L 20.792969 29.296875 L 21.890625 20.710938 L 20.876953 19.960938 L 19.863281 19.210938 L 18.115234 14.638672 C 17.154252 12.124678 16.176508 9.4514099 15.941406 8.6972656 L 15.513672 7.3261719 z M 20.470703 8.8496094 L 20.482422 9.4589844 C 20.494516 10.13168 24.086593 12.8125 24.976562 12.8125 C 25.284821 12.8125 26.47215 12.098409 27.615234 11.226562 C 28.758258 10.354716 29.56332 9.5105256 29.404297 9.3515625 C 29.245103 9.1923688 27.170182 9.0154779 24.792969 8.9570312 L 20.470703 8.8496094 z M 19.810547 11.441406 L 19.470703 11.78125 L 19.130859 12.121094 L 19.847656 14.294922 L 20.566406 16.46875 L 21.212891 16.46875 C 21.568847 16.46875 22.19636 16.007763 22.607422 15.445312 L 23.355469 14.423828 L 21.582031 12.931641 L 19.810547 11.441406 z M 30.503906 11.5625 C 30.14835 11.551386 29.37882 12.077168 28.132812 13.095703 L 26.345703 14.554688 L 27.140625 15.511719 C 27.577085 16.037617 28.188752 16.466797 28.5 16.466797 L 29.066406 16.466797 L 29.949219 14.353516 C 30.733201 12.477186 30.96105 11.57679 30.503906 11.5625 z M 24.423828 15.855469 L 23.675781 17.050781 L 22.929688 18.248047 L 23.289062 19.185547 L 23.650391 20.125 L 24.822266 20.125 L 25.996094 20.125 L 26.376953 19.126953 L 26.759766 18.130859 L 26.162109 17.183594 C 25.833563 16.662465 25.308011 16.149566 24.994141 16.044922 L 24.423828 15.855469 z M 24.65625 21.181641 L 24.072266 21.765625 L 23.490234 22.347656 L 22.597656 29.533203 L 21.707031 36.71875 L 22.095703 37.410156 C 22.751761 38.57351 24.29457 40.234375 24.71875 40.234375 C 24.939198 40.234375 25.828785 39.481432 26.695312 38.560547 L 28.271484 36.884766 L 27.431641 31.398438 C 26.969544 28.381679 26.585401 25.013977 26.578125 23.914062 L 26.566406 21.914062 L 25.611328 21.546875 L 24.65625 21.181641 z "
       transform="matrix(0.26458333,0,0,0.26458333,36.043689,73.889564)" />
  </g>
</svg>
