<?xml version="1.0" encoding="UTF-8" standalone="no"?>
<!-- Created with Inkscape (http://www.inkscape.org/) -->

<svg
   width="13.758333mm"
   height="13.758333mm"
   viewBox="0 0 13.758333 13.758333"
   version="1.1"
   id="svg5"
   inkscape:version="1.1 (c68e22c387, 2021-05-23)"
   sodipodi:docname="fb.svg"
   xmlns:inkscape="http://www.inkscape.org/namespaces/inkscape"
   xmlns:sodipodi="http://sodipodi.sourceforge.net/DTD/sodipodi-0.dtd"
   xmlns="http://www.w3.org/2000/svg"
   xmlns:svg="http://www.w3.org/2000/svg">
  <sodipodi:namedview
     id="namedview7"
     pagecolor="#ffffff"
     bordercolor="#999999"
     borderopacity="1"
     inkscape:pageshadow="0"
     inkscape:pageopacity="0"
     inkscape:pagecheckerboard="0"
     inkscape:document-units="mm"
     showgrid="false"
     inkscape:zoom="8.3049731"
     inkscape:cx="36.423959"
     inkscape:cy="33.654534"
     inkscape:window-width="1920"
     inkscape:window-height="1009"
     inkscape:window-x="-8"
     inkscape:window-y="-8"
     inkscape:window-maximized="1"
     inkscape:current-layer="layer1" />
  <defs
     id="defs2" />
  <g
     inkscape:label="Capa 1"
     inkscape:groupmode="layer"
     id="layer1"
     transform="translate(-60.743896,-70.177955)">
    <path
       style="fill:#ffffff;stroke-width:0.00982738"
       d="M 66.605931,79.692581 V 77.643572 H 65.85905 65.112169 v -0.850068 -0.850069 h 0.746881 0.746881 v -0.755667 c 0,-0.451911 0.0041,-0.796576 0.01023,-0.857439 0.08368,-0.832381 0.465663,-1.428965 1.112867,-1.738063 0.20579,-0.09828 0.432419,-0.163982 0.699882,-0.202892 0.129582,-0.01885 0.567991,-0.02475 0.802397,-0.01079 0.171885,0.01024 0.482719,0.04195 0.697827,0.0712 0.09914,0.01348 0.185786,0.02453 0.192542,0.02455 0.0097,2.9e-5 0.01228,0.151918 0.01228,0.726585 v 0.726547 l -0.469257,0.004 c -0.428187,0.0036 -0.477009,0.0057 -0.557832,0.024 -0.356664,0.08073 -0.571404,0.297217 -0.642886,0.648119 -0.01929,0.0947 -0.02033,0.131628 -0.02033,0.719855 v 0.619995 h 0.810759 c 0.588352,0 0.810759,0.003 0.810759,0.01093 0,0.006 -0.05749,0.384639 -0.127756,0.841397 -0.07027,0.456759 -0.127756,0.834373 -0.127756,0.839142 0,0.0049 -0.294961,0.0087 -0.683003,0.0087 h -0.683003 v 2.049873 2.049873 c 0,0 -1.899154,-0.0031 -1.85983,-0.0022 l 0.02211,5.11e-4 v -2.049009 z"
       id="path1817"
       sodipodi:nodetypes="ccccccccccsccscssscccsscsscsscccsccc" />
  </g>
</svg>
