<?xml version="1.0" encoding="UTF-8" standalone="no"?>
<!-- Created with Inkscape (http://www.inkscape.org/) -->

<svg
   width="13.758333mm"
   height="13.758333mm"
   viewBox="0 0 13.758333 13.758333"
   version="1.1"
   id="svg5"
   inkscape:version="1.1 (c68e22c387, 2021-05-23)"
   sodipodi:docname="gcp.svg"
   xmlns:inkscape="http://www.inkscape.org/namespaces/inkscape"
   xmlns:sodipodi="http://sodipodi.sourceforge.net/DTD/sodipodi-0.dtd"
   xmlns="http://www.w3.org/2000/svg"
   xmlns:svg="http://www.w3.org/2000/svg">
  <sodipodi:namedview
     id="namedview7"
     pagecolor="#ffffff"
     bordercolor="#999999"
     borderopacity="1"
     inkscape:pageshadow="0"
     inkscape:pageopacity="0"
     inkscape:pagecheckerboard="0"
     inkscape:document-units="mm"
     showgrid="false"
     inkscape:zoom="8"
     inkscape:cx="41.4375"
     inkscape:cy="30.0625"
     inkscape:window-width="1920"
     inkscape:window-height="1009"
     inkscape:window-x="-8"
     inkscape:window-y="-8"
     inkscape:window-maximized="1"
     inkscape:current-layer="layer1" />
  <defs
     id="defs2" />
  <g
     inkscape:label="Capa 1"
     inkscape:groupmode="layer"
     id="layer1"
     transform="translate(-46.606056,-37.595135)">
    <path
       id="path5222"
       style="fill:#ffffff;fill-opacity:1;stroke:none;stroke-width:0.39521;stroke-linecap:square;stroke-linejoin:round;stroke-miterlimit:4;stroke-dasharray:none;stroke-opacity:1;paint-order:fill markers stroke;stop-color:#000000"
       d="M 26 0 A 26 26 0 0 0 0 26 A 26 26 0 0 0 26 52 A 26 26 0 0 0 52 26 A 26 26 0 0 0 26 0 z M 25.996094 11.746094 C 26.46965 11.746094 26.706954 11.761225 27.140625 11.816406 C 28.706661 12.015398 30.173488 12.615631 31.441406 13.576172 C 31.783378 13.835258 32.0414 14.060931 32.375 14.394531 C 32.638811 14.658342 32.782794 14.816547 32.984375 15.0625 C 33.758381 16.00686 34.33813 17.109174 34.675781 18.279297 L 34.714844 18.414062 L 34.824219 18.494141 C 36.086214 19.414939 36.968981 20.712423 37.339844 22.193359 C 37.472354 22.72258 37.533342 23.214981 37.535156 23.751953 C 37.536558 24.165328 37.510131 24.494073 37.445312 24.875 C 37.333477 25.531013 37.147003 26.100816 36.845703 26.703125 C 36.532985 27.328195 36.155524 27.854348 35.660156 28.357422 C 35.050439 28.976622 34.36424 29.446719 33.578125 29.783203 C 32.91512 30.067008 32.314099 30.215799 31.525391 30.291016 C 31.394014 30.303488 30.955931 30.304373 26.068359 30.306641 C 23.145862 30.308058 20.753892 30.308345 20.751953 30.306641 C 20.749995 30.304932 20.690637 30.301852 20.621094 30.298828 C 20.086189 30.277285 19.429074 30.151176 18.902344 29.970703 C 18.340268 29.778098 17.848142 29.535922 17.355469 29.207031 C 16.816542 28.847258 16.296923 28.369115 15.884766 27.853516 C 15.113508 26.888689 14.634873 25.736299 14.498047 24.515625 C 14.467811 24.245086 14.464466 24.181816 14.464844 23.78125 C 14.465014 23.35939 14.469211 23.277509 14.509766 22.957031 C 14.574471 22.444384 14.714021 21.892755 14.902344 21.414062 C 15.270545 20.478098 15.842973 19.646627 16.585938 18.96875 C 16.774686 18.796517 16.985084 18.625907 17.162109 18.5 C 17.220087 18.458765 17.269507 18.421231 17.273438 18.416016 C 17.277216 18.410724 17.288623 18.374072 17.298828 18.335938 C 17.388252 18.000882 17.580219 17.472053 17.744141 17.105469 C 18.408071 15.620696 19.461719 14.338571 20.796875 13.392578 C 22.000806 12.539558 23.411355 11.993846 24.875 11.8125 C 25.291655 11.760872 25.533483 11.746094 25.996094 11.746094 z M 25.826172 15.763672 C 25.665564 15.76699 25.545767 15.777001 25.371094 15.798828 C 24.374051 15.923628 23.445265 16.343329 22.6875 17.009766 C 22.568672 17.11427 22.406944 17.270515 22.34375 17.341797 L 22.294922 17.396484 L 22.357422 17.410156 C 23.30402 17.614213 24.22648 18.047936 24.988281 18.646484 C 25.191847 18.806434 25.382554 18.976569 25.576172 19.169922 C 25.803435 19.396845 25.971161 19.583974 26.134766 19.796875 L 26.173828 19.847656 L 24.722656 21.300781 C 23.924152 22.099297 23.267983 22.751953 23.265625 22.751953 C 23.263312 22.751953 23.244124 22.715566 23.222656 22.671875 C 22.988628 22.195428 22.592479 21.795444 22.115234 21.552734 C 21.734526 21.359109 21.398431 21.27839 20.972656 21.279297 C 20.573716 21.280151 20.250878 21.354606 19.900391 21.523438 C 19.388491 21.770013 18.986863 22.16475 18.734375 22.669922 C 18.554847 23.029166 18.472656 23.377666 18.472656 23.785156 C 18.472656 24.181557 18.548721 24.517578 18.716797 24.865234 C 18.846246 25.132938 19.00085 25.350845 19.207031 25.556641 C 19.648181 25.996986 20.216918 26.249239 20.855469 26.289062 C 20.877768 26.290465 23.217494 26.291564 26.056641 26.291016 C 30.896492 26.290116 31.222605 26.288559 31.316406 26.275391 C 31.631666 26.229481 31.853146 26.162754 32.117188 26.033203 C 32.513988 25.83852 32.850884 25.542652 33.095703 25.175781 C 33.326935 24.829236 33.46196 24.454912 33.507812 24.03125 C 33.520285 23.914274 33.518227 23.630787 33.503906 23.507812 C 33.36618 22.330253 32.439327 21.411292 31.265625 21.291016 C 31.219137 21.286102 31.156774 21.283203 31.126953 21.283203 C 31.097095 21.28312 31.059296 21.279944 31.042969 21.277344 L 31.013672 21.273438 L 31.009766 20.863281 C 31.00523 20.431829 30.998669 20.328368 30.958984 20.052734 C 30.893372 19.599119 30.768803 19.166417 30.583984 18.75 C 30.237137 17.968552 29.697814 17.291276 29.007812 16.769531 C 28.337102 16.262372 27.543326 15.932678 26.708984 15.8125 C 26.458402 15.776594 26.285844 15.764163 26.003906 15.763672 C 25.937594 15.763556 25.879708 15.762566 25.826172 15.763672 z M 11.181641 34.970703 C 11.79554 34.957722 12.403036 35.131386 12.675781 35.460938 C 12.789734 35.598625 12.781646 35.64222 12.609375 35.814453 L 12.414062 36.009766 L 12.054688 35.808594 C 11.286714 35.376972 10.297483 35.62329 9.8164062 36.365234 C 9.504104 36.846882 9.4279235 37.268718 9.5683594 37.744141 C 9.8124035 38.570349 10.377178 38.994141 11.234375 38.994141 C 12.015097 38.994141 12.512166 38.637454 12.726562 37.919922 C 12.786997 37.717604 12.774276 37.712891 12.003906 37.712891 L 11.21875 37.712891 L 11.21875 37.392578 L 11.21875 37.072266 L 12.330078 37.072266 L 13.441406 37.072266 L 13.394531 37.646484 C 13.299816 38.826256 12.620442 39.529947 11.447266 39.662109 C 11.24593 39.684787 10.937901 39.673821 10.761719 39.638672 C 8.5378143 39.197756 8.119311 36.210388 10.140625 35.203125 C 10.442394 35.052747 10.813301 34.978492 11.181641 34.970703 z M 23.757812 35.058594 L 24.078125 35.058594 L 24.398438 35.058594 L 24.398438 37.347656 L 24.398438 39.634766 L 24.078125 39.634766 L 23.757812 39.634766 L 23.757812 37.347656 L 23.757812 35.058594 z M 31.003906 35.355469 C 31.438647 35.354707 31.878229 35.485385 32.255859 35.767578 C 32.56151 35.995975 32.562277 35.998274 32.380859 36.179688 C 32.199442 36.361104 32.197848 36.360079 31.914062 36.150391 C 31.715034 36.003254 31.471918 35.930956 31.103516 35.908203 C 30.409904 35.865343 29.930501 36.124944 29.638672 36.703125 C 28.835518 38.294355 30.497021 39.836421 31.951172 38.849609 C 32.274019 38.63051 32.300589 38.62678 32.464844 38.775391 C 32.630236 38.92506 32.630389 38.941325 32.476562 39.111328 C 32.050652 39.582303 31.135646 39.801506 30.421875 39.603516 C 29.480104 39.342275 28.886497 38.529345 28.884766 37.503906 C 28.884316 37.212845 28.937979 36.843627 29.005859 36.681641 C 29.357886 35.841593 30.173946 35.356924 31.003906 35.355469 z M 33.09375 35.425781 L 33.369141 35.425781 L 33.646484 35.425781 L 33.621094 37.507812 L 33.597656 39.589844 L 33.345703 39.619141 L 33.09375 39.648438 L 33.09375 37.537109 L 33.09375 35.425781 z M 42.611328 35.425781 L 42.888672 35.425781 L 43.164062 35.425781 L 43.140625 37.507812 L 43.115234 39.589844 L 42.863281 39.619141 C 42.65828 39.642574 42.611328 39.612356 42.611328 39.453125 L 42.611328 39.257812 L 42.357422 39.4375 C 41.9664 39.715938 41.529545 39.758203 41.09375 39.556641 C 39.979451 39.041287 39.996552 37.276709 41.121094 36.779297 C 41.57545 36.578302 41.949716 36.6167 42.359375 36.90625 L 42.611328 37.085938 L 42.611328 36.255859 L 42.611328 35.425781 z M 15.183594 36.619141 C 15.646234 36.610637 16.11987 36.809743 16.447266 37.269531 C 16.756166 37.703353 16.783227 38.471233 16.507812 38.941406 C 16.151366 39.549914 15.330478 39.842006 14.667969 39.597656 C 14.007202 39.353952 13.669922 38.872452 13.669922 38.171875 C 13.669922 37.228661 14.412527 36.633313 15.183594 36.619141 z M 18.576172 36.623047 C 18.774016 36.630507 18.973858 36.6896 19.205078 36.798828 C 19.748805 37.055685 20.019854 37.483388 20.025391 38.099609 C 20.032572 38.886416 19.687096 39.359558 18.916016 39.621094 C 18.512646 39.757913 18.395747 39.747087 17.900391 39.533203 L 17.900391 39.535156 C 16.680438 39.008422 16.71963 37.271419 17.962891 36.751953 C 18.183541 36.659752 18.378327 36.615587 18.576172 36.623047 z M 26.119141 36.625 C 26.340669 36.617068 26.560717 36.667542 26.775391 36.775391 C 27.115661 36.946339 27.533313 37.483683 27.490234 37.695312 C 27.475872 37.765763 27.041863 37.99417 26.525391 38.203125 C 25.526998 38.607036 25.411729 38.748985 25.890625 38.978516 C 26.197334 39.125501 26.607379 39.05037 26.826172 38.808594 C 26.982531 38.635794 26.988935 38.635431 27.253906 38.824219 L 27.523438 39.017578 L 27.283203 39.267578 C 27.049931 39.511055 26.526811 39.726562 26.169922 39.726562 C 26.073166 39.726562 25.810134 39.634719 25.585938 39.521484 C 25.014874 39.232993 24.763672 38.824731 24.763672 38.179688 C 24.763672 37.53041 24.988946 37.092853 25.460938 36.822266 C 25.675905 36.699015 25.897612 36.632932 26.119141 36.625 z M 21.820312 36.636719 C 21.990948 36.635415 22.156445 36.671167 22.306641 36.746094 C 22.4966 36.840847 22.622698 36.860384 22.642578 36.800781 C 22.659964 36.748359 22.819325 36.707031 22.996094 36.707031 L 23.318359 36.707031 L 23.285156 38.376953 C 23.257188 39.857685 23.233487 40.082179 23.068359 40.363281 C 22.703673 40.984016 21.889776 41.235772 21.232422 40.929688 C 21.026097 40.833612 20.766367 40.629268 20.65625 40.474609 L 20.457031 40.193359 L 20.728516 40.052734 C 20.991079 39.916936 21.008927 39.921018 21.273438 40.185547 C 21.78537 40.697484 22.51408 40.428493 22.632812 39.683594 L 22.689453 39.320312 L 22.4375 39.484375 C 22.094961 39.708803 21.459079 39.700384 21.078125 39.464844 C 20.450466 39.076928 20.194226 38.160346 20.521484 37.470703 C 20.76104 36.965867 21.308407 36.640631 21.820312 36.636719 z M 35.398438 36.677734 C 35.69292 36.667704 35.995806 36.726832 36.212891 36.851562 C 36.586195 37.065975 36.9375 37.706763 36.9375 38.171875 C 36.9375 38.614564 36.586423 39.275983 36.25 39.46875 C 35.80411 39.724246 35.297713 39.7562 34.869141 39.556641 C 34.288484 39.286291 34.054688 38.889263 34.054688 38.171875 C 34.054688 37.491809 34.268762 37.089442 34.771484 36.826172 C 34.945371 36.735111 35.169395 36.685536 35.398438 36.677734 z M 37.853516 36.693359 L 37.853516 37.695312 C 37.853516 38.568913 37.877463 38.724982 38.042969 38.935547 C 38.299863 39.262098 38.744444 39.265009 39.048828 38.941406 C 39.250882 38.72654 39.274388 38.616279 39.302734 37.701172 L 39.333984 36.695312 L 39.576172 36.724609 L 39.820312 36.751953 L 39.820312 38.171875 L 39.820312 39.589844 L 39.568359 39.619141 C 39.364605 39.642574 39.316406 39.610417 39.316406 39.455078 L 39.316406 39.263672 L 39.064453 39.449219 C 38.794368 39.647266 38.390091 39.734538 38.0625 39.666016 C 37.789089 39.608869 37.414221 39.147156 37.347656 38.785156 C 37.317798 38.623052 37.306959 38.09931 37.322266 37.621094 L 37.349609 36.751953 L 37.601562 36.722656 L 37.853516 36.693359 z M 35.449219 37.162109 C 34.997557 37.184737 34.553967 37.571887 34.560547 38.1875 C 34.568862 38.959427 35.255618 39.389525 35.925781 39.042969 C 36.354085 38.821488 36.498147 38.203027 36.246094 37.671875 C 36.071025 37.302944 35.75825 37.146627 35.449219 37.162109 z M 41.720703 37.169922 C 41.25636 37.170392 40.822041 37.599074 40.835938 38.238281 C 40.843496 38.589173 40.89314 38.702078 41.134766 38.917969 C 41.464945 39.212999 41.858774 39.256271 42.199219 39.033203 C 42.646356 38.740214 42.720532 37.869976 42.333984 37.455078 C 42.149919 37.257507 41.931768 37.169708 41.720703 37.169922 z M 15.253906 37.246094 C 15.031488 37.235756 14.795203 37.325895 14.597656 37.523438 C 14.174867 37.946222 14.276724 38.669605 14.798828 38.958984 C 15.126891 39.140817 15.385872 39.111545 15.685547 38.859375 C 16.017314 38.580219 16.11135 38.171205 15.939453 37.759766 C 15.804538 37.436875 15.539873 37.259385 15.253906 37.246094 z M 21.871094 37.257812 C 21.260553 37.251766 20.853654 37.935039 21.105469 38.542969 C 21.350798 39.135209 21.948499 39.262443 22.392578 38.818359 C 22.950195 38.260743 22.617471 37.265432 21.871094 37.257812 z M 26.162109 37.261719 C 26.006928 37.267768 25.854505 37.3033 25.763672 37.373047 C 25.537732 37.546527 25.296215 38.080078 25.443359 38.080078 C 25.463769 38.080078 25.752097 37.957507 26.083984 37.808594 C 26.415865 37.65968 26.6875 37.50018 26.6875 37.453125 C 26.6875 37.323889 26.420745 37.251637 26.162109 37.261719 z M 18.478516 37.291016 C 18.267533 37.295187 18.066112 37.349902 17.955078 37.460938 C 17.552472 37.863543 17.622695 38.603599 18.095703 38.943359 C 18.390393 39.155013 18.892351 39.069625 19.158203 38.763672 C 19.433013 38.447401 19.441079 37.829539 19.173828 37.521484 C 19.038127 37.365012 18.749779 37.285652 18.478516 37.291016 z "
       transform="matrix(0.26458333,0,0,0.26458333,46.606056,37.595135)" />
  </g>
</svg>
