<?xml version="1.0" encoding="UTF-8" standalone="no"?>
<!-- Created with Inkscape (http://www.inkscape.org/) -->

<svg
   width="13.758333mm"
   height="13.758333mm"
   viewBox="0 0 13.758333 13.758333"
   version="1.1"
   id="svg5"
   inkscape:version="1.1 (c68e22c387, 2021-05-23)"
   sodipodi:docname="github.svg"
   xmlns:inkscape="http://www.inkscape.org/namespaces/inkscape"
   xmlns:sodipodi="http://sodipodi.sourceforge.net/DTD/sodipodi-0.dtd"
   xmlns="http://www.w3.org/2000/svg"
   xmlns:svg="http://www.w3.org/2000/svg">
  <sodipodi:namedview
     id="namedview7"
     pagecolor="#ffffff"
     bordercolor="#999999"
     borderopacity="1"
     inkscape:pageshadow="0"
     inkscape:pageopacity="0"
     inkscape:pagecheckerboard="0"
     inkscape:document-units="mm"
     showgrid="false"
     inkscape:zoom="8.3049731"
     inkscape:cx="21.974785"
     inkscape:cy="34.617812"
     inkscape:window-width="1920"
     inkscape:window-height="1009"
     inkscape:window-x="-8"
     inkscape:window-y="-8"
     inkscape:window-maximized="1"
     inkscape:current-layer="layer1" />
  <defs
     id="defs2" />
  <g
     inkscape:label="Capa 1"
     inkscape:groupmode="layer"
     id="layer1"
     transform="translate(-60.743896,-70.177955)">
    <path
       style="fill:#ffffff;stroke-width:0.0243283"
       d="m 66.110729,82.009847 c 0.107053,-0.03897 0.177109,-0.114592 0.197738,-0.213432 0.0095,-0.04551 0.0131,-0.327548 0.008,-0.626762 l -0.0093,-0.544024 -0.09449,0.01513 c -0.454156,0.07262 -0.841333,0.06456 -1.141641,-0.02378 -0.409963,-0.120605 -0.766714,-0.417916 -0.936901,-0.780835 -0.265714,-0.566633 -0.398812,-0.758157 -0.656377,-0.944519 -0.216798,-0.156865 -0.377021,-0.311113 -0.377021,-0.362963 0,-0.109054 0.319019,-0.14381 0.563638,-0.0614 0.306562,0.103273 0.521461,0.284135 0.771574,0.649373 0.25339,0.370021 0.521217,0.572017 0.848531,0.639966 0.223154,0.04633 0.613049,0.01819 0.849337,-0.06129 l 0.198845,-0.06689 0.03876,-0.173771 c 0.05006,-0.224426 0.135454,-0.406806 0.272158,-0.581268 l 0.10961,-0.139888 h -0.07166 c -0.03941,0 -0.192541,-0.02104 -0.34029,-0.04675 -1.471983,-0.256182 -2.2477,-0.952119 -2.511995,-2.253644 -0.06427,-0.316515 -0.09004,-0.993768 -0.04859,-1.277226 0.06242,-0.426866 0.246879,-0.857578 0.503246,-1.175057 l 0.134704,-0.166815 -0.05433,-0.210272 c -0.104694,-0.405162 -0.08411,-0.886864 0.05667,-1.326048 0.06684,-0.208524 0.09957,-0.225395 0.365761,-0.188557 0.357375,0.04946 0.845681,0.25079 1.316516,0.542812 l 0.196526,0.121889 0.16124,-0.03892 c 0.920406,-0.22216 1.939214,-0.230913 2.862786,-0.0246 l 0.274798,0.06139 0.286808,-0.171489 c 0.33078,-0.197782 0.577037,-0.31582 0.833596,-0.399571 0.223491,-0.07295 0.510482,-0.119252 0.616235,-0.09941 0.07583,0.01423 0.08221,0.02433 0.142499,0.225656 0.0891,0.297575 0.113562,0.461483 0.113562,0.761024 0,0.247522 -0.03812,0.510447 -0.09611,0.662987 -0.02356,0.06197 -0.01698,0.07977 0.06731,0.181895 0.432175,0.523666 0.618003,1.127648 0.577493,1.876997 -0.09414,1.741479 -0.928348,2.643649 -2.689571,2.908683 -0.153877,0.02315 -0.284048,0.0457 -0.289269,0.05009 -0.0052,0.0044 0.02998,0.05167 0.07821,0.105068 0.104965,0.116182 0.185552,0.269949 0.262171,0.500244 0.05527,0.166128 0.05698,0.198587 0.06968,1.325885 0.01411,1.253086 0.0128,1.241753 0.150232,1.299538 0.05994,0.0252 -0.165757,0.03332 -1.297393,0.04665 -1.947668,0.02295 -2.41162,0.01973 -2.313296,-0.01606 z"
       id="path854" />
  </g>
</svg>
