<?xml version="1.0" encoding="UTF-8" standalone="no"?>
<!-- Created with Inkscape (http://www.inkscape.org/) -->

<svg
   width="13.229168mm"
   height="13.229167mm"
   viewBox="0 0 13.229168 13.229167"
   version="1.1"
   id="svg4683"
   inkscape:version="1.1 (c68e22c387, 2021-05-23)"
   sodipodi:docname="groupwork.svg"
   xmlns:inkscape="http://www.inkscape.org/namespaces/inkscape"
   xmlns:sodipodi="http://sodipodi.sourceforge.net/DTD/sodipodi-0.dtd"
   xmlns="http://www.w3.org/2000/svg"
   xmlns:svg="http://www.w3.org/2000/svg">
  <sodipodi:namedview
     id="namedview4685"
     pagecolor="#ffffff"
     bordercolor="#999999"
     borderopacity="1"
     inkscape:pageshadow="0"
     inkscape:pageopacity="0"
     inkscape:pagecheckerboard="0"
     inkscape:document-units="mm"
     showgrid="false"
     inkscape:zoom="8.3049731"
     inkscape:cx="13.66651"
     inkscape:cy="21.854375"
     inkscape:window-width="1920"
     inkscape:window-height="1009"
     inkscape:window-x="-8"
     inkscape:window-y="-8"
     inkscape:window-maximized="1"
     inkscape:current-layer="layer1" />
  <defs
     id="defs4680" />
  <g
     inkscape:label="Capa 1"
     inkscape:groupmode="layer"
     id="layer1"
     transform="translate(-36.043689,-73.889564)">
    <path
       id="path4888"
       style="fill:#ffffff;stroke:#000000;stroke-width:0;stroke-linecap:square;stroke-linejoin:round;paint-order:fill markers stroke;stop-color:#000000"
       d="M 25 0 A 24.999999 24.999997 0 0 0 0 25 A 24.999999 24.999997 0 0 0 25 50 A 24.999999 24.999997 0 0 0 50 25 A 24.999999 24.999997 0 0 0 25 0 z M 9.4316406 9.9609375 L 9.828125 9.9707031 C 10.045826 9.9763724 12.791149 12.472371 15.929688 15.517578 L 21.636719 21.054688 L 21.308594 22.085938 L 20.982422 23.117188 L 22.462891 23.443359 C 23.277541 23.622396 24.260103 23.867454 24.646484 23.988281 L 25.349609 24.208984 L 26.480469 23.416016 L 27.609375 22.625 L 28.603516 22.625 L 29.597656 22.625 L 29.28125 21.798828 L 28.964844 20.972656 L 34.423828 15.466797 C 37.426534 12.438518 40.03637 9.9609375 40.224609 9.9609375 L 40.568359 9.9609375 L 40.568359 18.630859 L 40.568359 27.302734 L 39.033203 28.396484 L 37.498047 29.488281 L 36.658203 29.167969 L 35.818359 28.845703 L 35.818359 30.203125 L 35.818359 31.560547 L 31.707031 35.800781 L 27.597656 40.039062 L 25.244141 40.039062 L 22.890625 40.039062 L 19.384766 36.304688 L 15.880859 32.570312 L 15.558594 30.962891 L 15.238281 29.355469 L 14.503906 29.964844 L 13.771484 30.574219 L 11.601562 28.425781 L 9.4316406 26.279297 L 9.4316406 18.119141 L 9.4316406 9.9609375 z M 38.984375 13.416016 L 35.027344 17.347656 L 31.070312 21.277344 L 34.087891 24.326172 C 35.747118 26.002895 37.241442 27.375 37.410156 27.375 C 37.578874 27.375 38.003268 27.090467 38.351562 26.742188 L 38.984375 26.107422 L 38.984375 19.761719 L 38.984375 13.416016 z M 11.015625 13.654297 L 11.015625 19.556641 L 11.015625 25.458984 L 12.171875 26.691406 L 13.330078 27.921875 L 13.857422 27.746094 C 14.147501 27.649413 15.571223 26.211748 17.021484 24.550781 L 19.658203 21.53125 L 15.746094 17.591797 C 13.594375 15.425625 11.64877 13.654297 11.423828 13.654297 L 11.015625 13.654297 z M 31.472656 23.767578 L 29.556641 24.054688 L 27.638672 24.339844 L 25.396484 26.496094 L 22.482422 29.224609 L 23.546875 30.619141 L 25.259766 29.224609 L 26.787109 28.433594 L 27.111328 28.958984 C 27.290062 29.248156 27.822836 29.486328 28.294922 29.486328 L 29.154297 29.486328 L 30.382812 28.332031 L 31.609375 27.177734 L 32.162109 27.730469 L 32.714844 28.28125 L 31.119141 29.787109 L 29.523438 31.292969 L 30.378906 32.236328 C 31.475253 33.44778 31.716128 33.425222 33.025391 31.992188 L 34.109375 30.804688 L 34.380859 28.957031 L 34.652344 27.111328 L 33.0625 25.439453 L 31.472656 23.767578 z M 19.824219 24.246094 L 19.195312 24.285156 L 17.666016 26.123047 L 16.138672 27.958984 L 16.744141 28.564453 L 17.347656 29.167969 L 17.347656 30.501953 L 17.347656 31.833984 L 20.896484 35.408203 L 24.443359 38.984375 L 25.226562 38.984375 L 26.011719 38.984375 L 28.011719 37.03125 L 30.013672 35.076172 L 30.013672 34.447266 L 30.013672 33.816406 L 28.142578 32.173828 L 26.269531 30.529297 L 25.25 31.076172 L 24.230469 31.621094 L 22.835938 32.335938 L 20.349609 29.441406 L 22.015625 27.724609 C 22.931756 26.779399 23.679688 25.83863 23.679688 25.634766 L 23.679688 25.263672 L 22.392578 25.263672 L 21.103516 25.263672 L 20.777344 24.736328 C 20.597967 24.44606 20.169894 24.225144 19.824219 24.246094 z "
       transform="matrix(0.26458333,0,0,0.26458333,36.043689,73.889564)" />
  </g>
</svg>
