<?xml version="1.0" encoding="UTF-8" standalone="no"?>
<!-- Created with Inkscape (http://www.inkscape.org/) -->

<svg
   width="13.229168mm"
   height="13.229167mm"
   viewBox="0 0 13.229168 13.229167"
   version="1.1"
   id="svg4683"
   sodipodi:docname="innovator.svg"
   inkscape:version="1.1 (c68e22c387, 2021-05-23)"
   xmlns:inkscape="http://www.inkscape.org/namespaces/inkscape"
   xmlns:sodipodi="http://sodipodi.sourceforge.net/DTD/sodipodi-0.dtd"
   xmlns="http://www.w3.org/2000/svg"
   xmlns:svg="http://www.w3.org/2000/svg">
  <sodipodi:namedview
     id="namedview4685"
     pagecolor="#ffffff"
     bordercolor="#999999"
     borderopacity="1"
     inkscape:pageshadow="0"
     inkscape:pageopacity="0"
     inkscape:pagecheckerboard="0"
     inkscape:document-units="mm"
     showgrid="false"
     inkscape:zoom="5.8725028"
     inkscape:cx="-0.25542772"
     inkscape:cy="13.537669"
     inkscape:window-width="1920"
     inkscape:window-height="1009"
     inkscape:window-x="-8"
     inkscape:window-y="-8"
     inkscape:window-maximized="1"
     inkscape:current-layer="layer1" />
  <defs
     id="defs4680" />
  <g
     inkscape:label="Capa 1"
     inkscape:groupmode="layer"
     id="layer1"
     transform="translate(-36.043689,-73.889564)">
    <path
       id="path4888"
       style="fill:#ffffff;stroke:#000000;stroke-width:0;stroke-linecap:square;stroke-linejoin:round;paint-order:fill markers stroke;stop-color:#000000"
       d="M 25 0 A 24.999999 24.999997 0 0 0 0 25 A 24.999999 24.999997 0 0 0 25 50 A 24.999999 24.999997 0 0 0 50 25 A 24.999999 24.999997 0 0 0 25 0 z M 25.242188 9.9628906 L 26.976562 11.285156 L 28.710938 12.609375 L 29.845703 14.443359 L 30.980469 16.279297 L 31.232422 19.910156 L 31.484375 23.542969 L 32.175781 24.542969 L 32.867188 25.544922 L 32.867188 28.394531 L 32.867188 31.244141 L 30.525391 31.333984 C 27.663578 31.44223 27.493489 31.539634 27.107422 33.302734 C 26.938099 34.076162 26.38469 35.231903 25.878906 35.873047 L 24.960938 37.039062 L 23.837891 35.042969 C 23.220879 33.945148 22.716797 32.679035 22.716797 32.228516 L 22.716797 31.410156 L 21.066406 31.355469 C 20.15921 31.32561 18.960614 31.26873 18.402344 31.228516 L 17.386719 31.154297 L 17.234375 28.771484 L 17.080078 26.386719 L 17.960938 24.710938 L 18.841797 23.035156 L 18.892578 19.990234 L 18.941406 16.945312 L 20.158203 14.794922 L 21.373047 12.644531 L 23.308594 11.304688 L 25.242188 9.9628906 z M 24.642578 12.021484 L 22.96875 13.644531 L 21.294922 15.265625 L 20.671875 17.494141 L 20.046875 19.722656 L 20.943359 24.423828 C 21.436433 27.009361 21.943083 29.306743 22.068359 29.529297 L 22.294922 29.933594 L 25.121094 29.783203 L 27.947266 29.632812 L 28.863281 25.826172 L 29.779297 22.019531 L 29.798828 19.708984 L 29.818359 17.396484 L 28.337891 15.060547 L 26.855469 12.724609 L 25.748047 12.373047 L 24.642578 12.021484 z M 24.875 17.09375 L 26.080078 17.642578 L 27.283203 18.191406 L 27.283203 19.707031 L 27.283203 21.222656 L 26.302734 21.748047 C 25.103271 22.389935 24.739524 22.386462 23.603516 21.722656 L 23.603516 21.726562 L 22.716797 21.208984 L 22.716797 19.728516 L 22.716797 18.25 L 23.794922 17.671875 L 24.875 17.09375 z M 24.505859 18.974609 L 24.326172 19.910156 L 24.146484 20.84375 L 25.080078 20.664062 L 26.015625 20.484375 L 26.015625 19.728516 L 26.015625 18.974609 L 25.259766 18.974609 L 24.505859 18.974609 z M 18.65625 25.826172 L 18.65625 27.517578 C 18.65625 29.337481 19.034841 30.015655 19.892578 29.726562 L 20.431641 29.544922 L 20.253906 28.066406 C 20.045843 26.338365 19.789846 25.826172 19.132812 25.826172 L 18.65625 25.826172 z M 30.447266 25.826172 L 30.140625 26.96875 C 29.972285 27.596836 29.831602 28.529271 29.828125 29.041016 L 29.824219 29.970703 L 30.457031 29.763672 L 31.091797 29.554688 L 31.248047 27.691406 L 31.404297 25.826172 L 30.925781 25.826172 L 30.447266 25.826172 z M 34.525391 31.408203 L 35.765625 31.408203 L 37.005859 31.408203 L 38.488281 32.892578 L 39.972656 34.376953 L 39.972656 35.960938 L 39.972656 37.544922 L 38.726562 38.791016 L 37.480469 40.037109 L 25.091797 40.037109 L 12.703125 40.037109 L 11.365234 38.699219 L 10.027344 37.361328 L 10.027344 35.869141 L 10.027344 34.376953 L 11.511719 32.892578 L 12.994141 31.410156 L 14.189453 31.410156 L 15.384766 31.410156 L 16.583984 32.25 C 17.24355 32.71179 18.490317 33.233633 19.353516 33.410156 L 20.921875 33.730469 L 21.646484 35.234375 C 22.045213 36.061328 22.530241 37.081262 22.722656 37.5 L 23.072266 38.261719 L 24.703125 38.421875 L 26.335938 38.583984 L 27.0625 37.978516 L 27.791016 37.375 L 27.791016 36.421875 L 27.791016 35.46875 L 28.806641 34.455078 L 29.822266 33.439453 L 30.882812 33.439453 L 31.945312 33.439453 L 33.236328 32.423828 L 34.525391 31.408203 z M 24.238281 31.410156 L 24.238281 32.339844 C 24.238281 32.851588 24.403869 33.43502 24.605469 33.636719 L 24.972656 34.003906 L 25.603516 33.138672 L 26.236328 32.275391 L 25.96875 31.841797 C 25.821764 31.603951 25.372905 31.410156 24.970703 31.410156 L 24.238281 31.410156 z M 15.087891 32.740234 L 13.708984 33.226562 L 12.330078 33.710938 L 11.847656 35.082031 L 11.365234 36.453125 L 12.298828 37.484375 L 13.230469 38.515625 L 17.222656 38.515625 L 21.212891 38.515625 L 20.878906 37.119141 C 20.695183 36.351477 20.449661 35.553094 20.332031 35.34375 L 20.119141 34.962891 L 18.785156 34.962891 L 17.453125 34.962891 L 16.269531 33.851562 L 15.087891 32.740234 z M 34.851562 32.931641 L 33.707031 34.076172 L 32.5625 35.220703 L 31.675781 35.048828 L 30.787109 34.878906 L 30.050781 35.490234 L 29.314453 36.101562 L 29.314453 37.308594 L 29.314453 38.515625 L 33.083984 38.515625 L 36.853516 38.515625 L 37.652344 37.716797 L 38.449219 36.919922 L 38.449219 35.853516 L 38.449219 34.789062 L 37.609375 33.859375 L 36.769531 32.931641 L 35.810547 32.931641 L 34.851562 32.931641 z "
       transform="matrix(0.26458333,0,0,0.26458333,36.043689,73.889564)" />
  </g>
</svg>
