<?xml version="1.0" encoding="UTF-8" standalone="no"?>
<!-- Created with Inkscape (http://www.inkscape.org/) -->

<svg
   width="13.758333mm"
   height="13.758333mm"
   viewBox="0 0 13.758333 13.758333"
   version="1.1"
   id="svg5"
   inkscape:version="1.1 (c68e22c387, 2021-05-23)"
   sodipodi:docname="js_icon.svg"
   xmlns:inkscape="http://www.inkscape.org/namespaces/inkscape"
   xmlns:sodipodi="http://sodipodi.sourceforge.net/DTD/sodipodi-0.dtd"
   xmlns="http://www.w3.org/2000/svg"
   xmlns:svg="http://www.w3.org/2000/svg">
  <sodipodi:namedview
     id="namedview7"
     pagecolor="#ffffff"
     bordercolor="#999999"
     borderopacity="1"
     inkscape:pageshadow="0"
     inkscape:pageopacity="0"
     inkscape:pagecheckerboard="0"
     inkscape:document-units="mm"
     showgrid="false"
     inkscape:zoom="4"
     inkscape:cx="-19.625"
     inkscape:cy="27.125"
     inkscape:window-width="1920"
     inkscape:window-height="1009"
     inkscape:window-x="-8"
     inkscape:window-y="-8"
     inkscape:window-maximized="1"
     inkscape:current-layer="layer1" />
  <defs
     id="defs2" />
  <g
     inkscape:label="Capa 1"
     inkscape:groupmode="layer"
     id="layer1"
     transform="translate(-46.606056,-37.595135)">
    <path
       id="path5222"
       style="fill:#ffffff;fill-opacity:1;stroke:none;stroke-width:0.39521;stroke-linecap:square;stroke-linejoin:round;stroke-miterlimit:4;stroke-dasharray:none;stroke-opacity:1;paint-order:fill markers stroke;stop-color:#000000"
       d="M 26 0 A 26 26 0 0 0 0 26 A 26 26 0 0 0 26 52 A 26 26 0 0 0 52 26 A 26 26 0 0 0 26 0 z M 38.855469 29.496094 C 39.484257 29.493854 40.149588 29.590604 40.677734 29.767578 C 41.465135 30.031276 42.136438 30.527474 42.685547 31.251953 C 42.930952 31.575707 43.116805 31.883195 43.085938 31.914062 C 43.074977 31.925023 42.551808 32.26285 41.923828 32.666016 L 40.78125 33.400391 L 40.599609 33.123047 C 40.143107 32.42668 39.62945 32.131951 38.875 32.132812 C 38.213598 32.133565 37.791591 32.362188 37.548828 32.853516 C 37.436765 33.080363 37.435232 33.092996 37.4375 33.421875 C 37.440051 33.809178 37.495474 33.99088 37.685547 34.240234 C 37.9452 34.580808 38.387279 34.837155 39.652344 35.380859 C 40.086645 35.56753 40.645928 35.822285 40.896484 35.945312 C 42.499832 36.732592 43.361107 37.557456 43.746094 38.677734 C 43.932387 39.219809 43.964466 39.444929 43.964844 40.210938 C 43.965188 40.953853 43.938325 41.147779 43.769531 41.646484 C 43.262579 43.143442 41.885312 44.123943 39.941406 44.371094 C 39.664405 44.406243 38.747855 44.43364 38.498047 44.414062 C 36.783347 44.279549 35.464711 43.697669 34.455078 42.630859 C 34.305825 42.47314 34.098214 42.224446 33.994141 42.078125 C 33.808566 41.817186 33.545173 41.369973 33.566406 41.351562 C 33.572076 41.346271 34.124107 41.027599 34.791016 40.642578 L 36.003906 39.943359 L 36.091797 40.083984 C 36.34752 40.488791 36.834922 41.019309 37.148438 41.234375 C 37.68456 41.602161 38.364973 41.784155 39.087891 41.751953 C 39.965304 41.712873 40.574224 41.401066 40.84375 40.855469 C 40.957249 40.625711 40.957031 40.619899 40.957031 40.257812 C 40.957031 39.907866 40.953712 39.883221 40.859375 39.683594 C 40.677618 39.29979 40.26661 38.974855 39.523438 38.626953 C 39.344175 38.543048 38.850287 38.324737 38.423828 38.140625 C 37.997369 37.956486 37.461721 37.710831 37.234375 37.595703 C 35.439198 36.686651 34.594311 35.540733 34.474609 33.849609 C 34.38511 32.585097 34.747463 31.549397 35.564453 30.732422 C 36.28646 30.010415 37.223033 29.611686 38.427734 29.513672 C 38.566913 29.502347 38.710364 29.496611 38.855469 29.496094 z M 28.949219 29.671875 L 30.451172 29.671875 L 31.955078 29.671875 L 31.945312 35.101562 C 31.933596 40.909045 31.939903 40.690926 31.789062 41.337891 C 31.459148 42.752813 30.556899 43.750288 29.228516 44.169922 C 28.530097 44.390571 27.672004 44.473423 26.867188 44.398438 L 26.865234 44.398438 C 26.012388 44.318954 25.249137 44.058434 24.589844 43.621094 C 24.247721 43.394133 23.736404 42.903995 23.486328 42.564453 C 23.26927 42.269726 22.948935 41.702217 22.982422 41.671875 C 22.99754 41.658269 23.377122 41.422588 23.828125 41.150391 C 24.279125 40.878189 24.814772 40.556198 25.017578 40.433594 C 25.220388 40.310986 25.392465 40.210938 25.400391 40.210938 C 25.408328 40.210938 25.493315 40.343 25.589844 40.505859 C 26.022853 41.236457 26.447479 41.607243 26.957031 41.701172 C 27.193101 41.744674 27.794515 41.720263 27.990234 41.658203 C 28.359683 41.541113 28.63706 41.284267 28.767578 40.939453 C 28.935578 40.495616 28.926161 40.7927 28.9375 35.009766 L 28.949219 29.671875 z "
       transform="matrix(0.26458333,0,0,0.26458333,46.606056,37.595135)" />
  </g>
</svg>
