<?xml version="1.0" encoding="UTF-8" standalone="no"?>
<!-- Created with Inkscape (http://www.inkscape.org/) -->

<svg
   width="13.229168mm"
   height="13.229167mm"
   viewBox="0 0 13.229168 13.229167"
   version="1.1"
   id="svg4683"
   sodipodi:docname="learn.svg"
   inkscape:version="1.1 (c68e22c387, 2021-05-23)"
   xmlns:inkscape="http://www.inkscape.org/namespaces/inkscape"
   xmlns:sodipodi="http://sodipodi.sourceforge.net/DTD/sodipodi-0.dtd"
   xmlns="http://www.w3.org/2000/svg"
   xmlns:svg="http://www.w3.org/2000/svg">
  <sodipodi:namedview
     id="namedview4685"
     pagecolor="#ffffff"
     bordercolor="#999999"
     borderopacity="1"
     inkscape:pageshadow="0"
     inkscape:pageopacity="0"
     inkscape:pagecheckerboard="0"
     inkscape:document-units="mm"
     showgrid="false"
     inkscape:zoom="5.8725028"
     inkscape:cx="-0.25542772"
     inkscape:cy="13.537669"
     inkscape:window-width="1920"
     inkscape:window-height="1009"
     inkscape:window-x="-8"
     inkscape:window-y="-8"
     inkscape:window-maximized="1"
     inkscape:current-layer="layer1" />
  <defs
     id="defs4680" />
  <g
     inkscape:label="Capa 1"
     inkscape:groupmode="layer"
     id="layer1"
     transform="translate(-36.043689,-73.889564)">
    <path
       id="path4888"
       style="fill:#ffffff;stroke:#000000;stroke-width:0;stroke-linecap:square;stroke-linejoin:round;paint-order:fill markers stroke;stop-color:#000000"
       d="M 25 0 A 24.999999 24.999997 0 0 0 0 25 A 24.999999 24.999997 0 0 0 25 50 A 24.999999 24.999997 0 0 0 50 25 A 24.999999 24.999997 0 0 0 25 0 z M 24.902344 10.765625 L 31.451172 13.375 C 35.053489 14.810321 38.338466 16.192919 38.75 16.447266 L 39.498047 16.908203 L 38.855469 17.552734 L 38.210938 18.195312 L 38.210938 20.601562 L 38.210938 23.007812 L 39.271484 23.966797 L 40.332031 24.925781 L 40.177734 27.544922 L 40.025391 30.162109 L 37.564453 30.320312 L 35.103516 30.478516 L 35.103516 27.664062 L 35.103516 24.849609 L 35.880859 24.205078 L 36.658203 23.560547 L 36.658203 21.033203 C 36.658203 19.643354 36.576947 18.505859 36.476562 18.505859 C 36.376707 18.505859 35.559483 18.76144 34.662109 19.074219 L 33.03125 19.644531 L 33.03125 21.652344 L 33.03125 23.660156 L 31.605469 24.373047 C 30.82189 24.765373 28.987476 25.506827 27.529297 26.019531 L 24.878906 26.951172 L 20.923828 25.507812 L 16.970703 24.066406 L 16.970703 22.035156 L 16.970703 20.003906 L 13.992188 18.660156 C 10.597132 17.129089 10.479248 17.053959 10.861328 16.671875 C 11.015419 16.517784 14.237043 15.125516 18.021484 13.578125 L 24.902344 10.765625 z M 24.873047 12.453125 L 20.037109 14.378906 L 15.201172 16.302734 L 15.033203 16.806641 L 14.865234 17.310547 L 19.15625 19.150391 C 21.516217 20.161815 23.970208 21.013213 24.609375 21.042969 L 25.771484 21.097656 L 30.458984 19.220703 L 35.148438 17.34375 L 34.974609 16.822266 L 34.800781 16.300781 L 29.835938 14.376953 L 24.873047 12.453125 z M 18.525391 20.46875 L 18.525391 21.775391 L 18.525391 23.082031 L 20.726562 23.861328 C 21.937595 24.290146 23.219989 24.659134 23.576172 24.681641 L 24.224609 24.722656 L 24.224609 23.744141 L 24.224609 22.763672 L 22.021484 21.873047 C 20.810456 21.383402 19.528054 20.866285 19.171875 20.724609 L 18.525391 20.46875 z M 31.220703 20.578125 C 31.039777 20.578125 29.742269 21.07298 28.335938 21.677734 L 25.779297 22.779297 L 25.779297 23.806641 L 25.779297 24.835938 L 27.203125 24.482422 C 27.986155 24.287913 29.209296 23.851303 29.921875 23.513672 L 31.21875 22.900391 L 31.382812 21.740234 L 31.548828 20.578125 L 31.220703 20.578125 z M 36.916016 24.982422 L 36.753906 26.96875 L 36.589844 28.957031 L 37.529297 28.775391 L 38.470703 28.595703 L 38.470703 26.789062 L 38.470703 24.982422 L 37.693359 24.982422 L 36.916016 24.982422 z M 19.712891 32.376953 L 22.097656 32.712891 C 24.883142 33.106226 24.928576 33.107672 27.449219 32.699219 L 29.378906 32.384766 L 31.074219 33.044922 L 32.771484 33.707031 L 36.398438 34.007812 L 40.025391 34.308594 L 40.183594 36.769531 L 40.339844 39.230469 L 36.667969 39.230469 L 32.996094 39.230469 L 31.136719 38.453125 C 30.113778 38.025849 28.867419 37.675781 28.367188 37.675781 L 27.458984 37.675781 L 26.8125 38.453125 L 26.167969 39.230469 L 25.177734 39.230469 L 24.185547 39.230469 L 22.867188 38.365234 L 21.548828 37.501953 L 19.128906 38.369141 L 16.710938 39.234375 L 13.185547 39.232422 L 9.6601562 39.230469 L 9.8183594 36.769531 L 9.9765625 34.308594 L 13.603516 34.041016 L 17.228516 33.775391 L 18.470703 33.076172 L 19.712891 32.376953 z M 28.703125 34.048828 C 27.995318 34.048828 27.048422 34.190406 26.597656 34.363281 L 25.777344 34.677734 L 25.777344 35.873047 L 25.777344 37.066406 L 27.257812 36.507812 L 28.736328 35.949219 L 30.753906 36.785156 L 32.771484 37.621094 L 35.789062 37.646484 L 38.806641 37.671875 L 38.632812 36.769531 L 38.460938 35.861328 L 35.357422 35.589844 L 32.253906 35.318359 L 31.123047 34.683594 L 29.990234 34.048828 L 28.703125 34.048828 z M 21.203125 34.068359 L 19.820312 34.089844 L 18.525391 34.830078 L 17.230469 35.570312 L 14.25 35.591797 L 11.271484 35.611328 L 11.271484 36.648438 L 11.271484 37.683594 L 14.111328 37.683594 L 16.949219 37.683594 L 19.105469 36.814453 L 21.261719 35.951172 L 22.742188 36.509766 L 24.224609 37.068359 L 24.224609 35.875 L 24.224609 34.679688 L 23.404297 34.365234 C 22.953683 34.192397 21.963437 34.05823 21.203125 34.068359 z "
       transform="matrix(0.26458333,0,0,0.26458333,36.043689,73.889564)" />
  </g>
</svg>
