<?xml version="1.0" encoding="UTF-8" standalone="no"?>
<!-- Created with Inkscape (http://www.inkscape.org/) -->

<svg
   width="13.963126mm"
   height="13.758324mm"
   viewBox="0 0 13.963126 13.758324"
   version="1.1"
   id="svg5"
   inkscape:version="1.1 (c68e22c387, 2021-05-23)"
   sodipodi:docname="link.svg"
   xmlns:inkscape="http://www.inkscape.org/namespaces/inkscape"
   xmlns:sodipodi="http://sodipodi.sourceforge.net/DTD/sodipodi-0.dtd"
   xmlns="http://www.w3.org/2000/svg"
   xmlns:svg="http://www.w3.org/2000/svg">
  <sodipodi:namedview
     id="namedview7"
     pagecolor="#ffffff"
     bordercolor="#999999"
     borderopacity="1"
     inkscape:pageshadow="0"
     inkscape:pageopacity="0"
     inkscape:pagecheckerboard="0"
     inkscape:document-units="mm"
     showgrid="false"
     inkscape:zoom="5.8725028"
     inkscape:cx="23.584493"
     inkscape:cy="27.671336"
     inkscape:window-width="1920"
     inkscape:window-height="1009"
     inkscape:window-x="-8"
     inkscape:window-y="-8"
     inkscape:window-maximized="1"
     inkscape:current-layer="layer1" />
  <defs
     id="defs2" />
  <g
     inkscape:label="Capa 1"
     inkscape:groupmode="layer"
     id="layer1"
     transform="translate(-37.904809,-55.358642)">
    <path
       style="fill:#ffffff;stroke-width:0.016677"
       d="m 42.748555,66.313114 c -0.544579,-0.07568 -0.965308,-0.283022 -1.352842,-0.666694 -0.28364,-0.280812 -0.449061,-0.546261 -0.561251,-0.900631 -0.07442,-0.23506 -0.09491,-0.37942 -0.09468,-0.66708 2.83e-4,-0.373316 0.05756,-0.627976 0.217166,-0.965561 0.153298,-0.324255 0.199213,-0.377806 1.123932,-1.310853 0.472705,-0.476963 0.908245,-0.906888 0.967866,-0.95539 0.608234,-0.494803 1.564606,-0.601002 2.259026,-0.25085 0.300044,0.151293 0.585322,0.395739 0.808081,0.69242 0.129457,0.172418 0.30165,0.446132 0.30165,0.479498 0,0.0099 -0.152925,0.170739 -0.339833,0.35748 l -0.339833,0.339529 -0.0943,-0.16801 c -0.345813,-0.616139 -0.743866,-0.891937 -1.285648,-0.890784 -0.308384,6.54e-4 -0.645645,0.112639 -0.885191,0.293914 -0.158195,0.119713 -1.592049,1.57089 -1.670736,1.690921 -0.17898,0.27302 -0.244483,0.649917 -0.173137,0.99621 0.06118,0.296965 0.247198,0.611646 0.444312,0.751642 0.224951,0.159765 0.503595,0.273138 0.754636,0.307037 0.245836,0.03319 0.540281,-0.03088 0.829682,-0.180555 0.134175,-0.06939 0.181383,-0.108333 0.445139,-0.367164 l 0.295048,-0.289537 0.105201,0.03564 c 0.05786,0.0196 0.180248,0.04391 0.271972,0.05402 0.178817,0.01971 0.607338,0.0094 0.714264,-0.01713 0.03513,-0.0087 0.06139,-0.01327 0.05837,-0.0101 -0.311348,0.327176 -1.223633,1.225408 -1.29967,1.279649 -0.22613,0.161308 -0.497785,0.277473 -0.790448,0.338009 -0.156245,0.03232 -0.553324,0.04597 -0.708774,0.02436 z m 2.251421,-2.151961 c -0.259868,-0.03253 -0.523174,-0.117799 -0.742463,-0.240432 -0.362906,-0.202948 -0.722954,-0.583834 -0.975356,-1.031801 l -0.0549,-0.09744 0.340024,-0.340328 c 0.187014,-0.187181 0.344158,-0.340328 0.349211,-0.340328 0.005,0 0.03032,0.04315 0.05614,0.09589 0.261092,0.533252 0.595642,0.832549 1.03104,0.922394 0.279787,0.05774 0.5221,0.03558 0.816397,-0.07465 0.269374,-0.100891 0.285086,-0.114126 1.119984,-0.943369 0.429573,-0.426664 0.813981,-0.821446 0.854241,-0.877294 0.08843,-0.12267 0.180197,-0.312847 0.21656,-0.4488 0.03675,-0.137391 0.05,-0.426584 0.0259,-0.565006 -0.04484,-0.257466 -0.180605,-0.528338 -0.354187,-0.706637 -0.09398,-0.09653 -0.323586,-0.236102 -0.500914,-0.304487 -0.481573,-0.185714 -0.905555,-0.114884 -1.365665,0.228149 -0.05899,0.04398 -0.22143,0.191704 -0.360979,0.32828 l -0.253726,0.24832 -0.06903,-0.02762 c -0.276364,-0.110579 -0.700713,-0.154983 -0.990064,-0.103599 -0.08195,0.01455 -0.151613,0.02385 -0.154805,0.02066 -0.0068,-0.0068 0.803724,-0.794469 0.962549,-0.935403 0.500766,-0.44436 0.926714,-0.687163 1.378618,-0.785856 0.179559,-0.03922 0.548651,-0.03978 0.743865,-0.0011 0.449457,0.08896 0.857308,0.302877 1.205221,0.632141 0.365449,0.34586 0.610086,0.770466 0.71802,1.246234 0.12638,0.557076 -0.07243,1.226934 -0.532234,1.793301 -0.143458,0.176706 -1.803963,1.826681 -1.92878,1.91655 -0.239173,0.172206 -0.530967,0.298059 -0.834444,0.359904 -0.194532,0.03964 -0.521415,0.05476 -0.700211,0.03238 z"
       id="path854" />
  </g>
</svg>
