<?xml version="1.0" encoding="UTF-8" standalone="no"?>
<!-- Created with Inkscape (http://www.inkscape.org/) -->

<svg
   width="13.758333mm"
   height="13.758333mm"
   viewBox="0 0 13.758333 13.758333"
   version="1.1"
   id="svg5"
   inkscape:version="1.1 (c68e22c387, 2021-05-23)"
   sodipodi:docname="myskills.svg"
   xmlns:inkscape="http://www.inkscape.org/namespaces/inkscape"
   xmlns:sodipodi="http://sodipodi.sourceforge.net/DTD/sodipodi-0.dtd"
   xmlns="http://www.w3.org/2000/svg"
   xmlns:svg="http://www.w3.org/2000/svg">
  <sodipodi:namedview
     id="namedview7"
     pagecolor="#ffffff"
     bordercolor="#999999"
     borderopacity="1"
     inkscape:pageshadow="0"
     inkscape:pageopacity="0"
     inkscape:pagecheckerboard="0"
     inkscape:document-units="mm"
     showgrid="false"
     inkscape:zoom="11.313709"
     inkscape:cx="30.273009"
     inkscape:cy="33.189824"
     inkscape:window-width="1920"
     inkscape:window-height="1009"
     inkscape:window-x="-8"
     inkscape:window-y="-8"
     inkscape:window-maximized="1"
     inkscape:current-layer="layer1" />
  <defs
     id="defs2" />
  <g
     inkscape:label="Capa 1"
     inkscape:groupmode="layer"
     id="layer1"
     transform="translate(-46.606056,-37.595135)">
    <path
       style="fill:#1e1e1e;fill-opacity:1;stroke:none;stroke-width:0.104566;stroke-linecap:square;stroke-linejoin:round;stroke-miterlimit:4;stroke-dasharray:none;stroke-opacity:1;paint-order:fill markers stroke;stop-color:#000000"
       d="m 53.485223,37.595135 a 6.8791666,6.8791666 0 0 0 -6.879167,6.879166 6.8791666,6.8791666 0 0 0 6.879167,6.879167 6.8791666,6.8791666 0 0 0 6.879166,-6.879167 6.8791666,6.8791666 0 0 0 -6.879166,-6.879166 z"
       id="path11922" />
    <path
       id="path5222"
       style="fill:#ffffff;fill-opacity:1;stroke:none;stroke-width:0.39521;stroke-linecap:square;stroke-linejoin:round;stroke-miterlimit:4;stroke-dasharray:none;stroke-opacity:1;paint-order:fill markers stroke;stop-color:#000000"
       d="M 26 0 A 26 26 0 0 0 0 26 A 26 26 0 0 0 26 52 A 26 26 0 0 0 52 26 A 26 26 0 0 0 26 0 z M 28.890625 9.9238281 C 28.955021 9.9138058 29.056968 9.9600195 29.222656 10.029297 L 29.443359 10.121094 L 29.441406 10.724609 C 29.440386 11.174645 29.410002 11.392853 29.326172 11.578125 C 29.019388 12.253474 27.988189 12.748008 26.027344 13.15625 C 24.835466 13.404414 24.542748 13.495164 23.916016 13.818359 C 23.365758 14.102164 22.695114 14.611039 22.523438 14.873047 L 22.421875 15.025391 L 30.419922 15.025391 L 38.416016 15.027344 L 38.662109 15.166016 C 38.800667 15.244479 38.972307 15.416081 39.050781 15.554688 L 39.189453 15.800781 L 39.191406 21.220703 C 39.192253 25.686589 39.17791 26.677149 39.107422 26.841797 C 38.986212 27.125148 38.688315 27.382265 38.408203 27.447266 C 38.11151 27.516091 13.846141 27.514278 13.554688 27.445312 C 13.28551 27.381666 12.93799 27.041819 12.857422 26.763672 C 12.815847 26.619634 12.80033 24.683133 12.8125 21.111328 L 12.832031 15.677734 L 12.976562 15.474609 C 13.056311 15.362811 13.228893 15.216014 13.361328 15.148438 C 13.593693 15.029949 13.740497 15.025391 17.574219 15.025391 L 21.544922 15.025391 L 21.771484 14.716797 C 22.516671 13.701654 23.729509 12.969301 25.220703 12.630859 C 26.583083 12.321656 27.36465 12.119692 27.710938 11.988281 C 28.12168 11.832414 28.603007 11.525641 28.673828 11.375 C 28.701419 11.316266 28.739483 10.961614 28.757812 10.585938 C 28.780726 10.113041 28.783298 9.9405319 28.890625 9.9238281 z M 26.007812 15.708984 C 14.653032 15.708984 13.702523 15.715378 13.597656 15.810547 C 13.489297 15.90855 13.484375 16.157381 13.484375 21.216797 C 13.484375 24.75411 13.503751 26.560518 13.546875 26.640625 C 13.610106 26.758735 13.815765 26.761719 25.996094 26.761719 C 38.176404 26.761719 38.38209 26.758803 38.445312 26.640625 C 38.488324 26.560537 38.509766 24.75839 38.509766 21.228516 C 38.509766 16.390426 38.500285 15.926067 38.40625 15.822266 C 38.307302 15.712999 37.841506 15.708984 26.007812 15.708984 z M 17.519531 17.814453 L 17.519531 18.376953 L 17.519531 18.9375 L 16.927734 18.9375 L 16.335938 18.9375 L 16.353516 18.394531 L 16.371094 17.851562 L 16.945312 17.833984 L 17.519531 17.814453 z M 18.326172 17.814453 L 18.902344 17.832031 L 19.476562 17.851562 L 19.494141 18.394531 L 19.511719 18.9375 L 18.919922 18.9375 L 18.326172 18.9375 L 18.326172 18.376953 L 18.326172 17.814453 z M 22.363281 17.820312 L 22.953125 17.820312 L 23.542969 17.820312 L 23.542969 18.378906 L 23.542969 18.9375 L 22.953125 18.9375 L 22.363281 18.9375 L 22.363281 18.378906 L 22.363281 17.820312 z M 24.351562 17.820312 L 24.941406 17.820312 L 25.53125 17.820312 L 25.53125 18.347656 L 25.53125 18.875 L 24.941406 18.875 L 24.351562 18.875 L 24.351562 18.347656 L 24.351562 17.820312 z M 26.275391 17.820312 L 26.898438 17.820312 L 27.523438 17.820312 L 27.503906 18.363281 L 27.486328 18.90625 L 26.925781 18.923828 C 26.616729 18.933655 26.344267 18.922607 26.320312 18.898438 L 26.318359 18.898438 C 26.29417 18.874249 26.275391 18.622504 26.275391 18.337891 L 26.275391 17.820312 z M 28.324219 17.820312 L 28.945312 17.820312 L 29.566406 17.820312 L 29.566406 18.347656 L 29.566406 18.875 L 28.945312 18.875 L 28.324219 18.875 L 28.324219 18.347656 L 28.324219 17.820312 z M 30.560547 17.820312 L 31.150391 17.820312 L 31.740234 17.820312 L 31.740234 18.347656 L 31.740234 18.875 L 31.150391 18.875 L 30.560547 18.875 L 30.560547 18.347656 L 30.560547 17.820312 z M 32.546875 17.820312 L 33.167969 17.820312 L 33.789062 17.820312 L 33.789062 18.347656 L 33.789062 18.875 L 33.167969 18.875 L 32.546875 18.875 L 32.546875 18.347656 L 32.546875 17.820312 z M 34.535156 17.820312 L 35.15625 17.820312 L 35.777344 17.820312 L 35.777344 18.347656 L 35.777344 18.875 L 35.15625 18.875 L 34.535156 18.875 L 34.535156 18.347656 L 34.535156 17.820312 z M 20.345703 17.851562 L 20.935547 17.851562 L 21.525391 17.851562 L 21.542969 18.394531 L 21.560547 18.9375 L 20.966797 18.9375 C 20.526573 18.9375 20.363557 18.915009 20.339844 18.853516 C 20.322458 18.807594 20.315967 18.563488 20.326172 18.310547 L 20.345703 17.851562 z M 34.535156 19.433594 L 35.125 19.433594 L 35.714844 19.433594 L 35.714844 19.992188 L 35.714844 20.552734 L 35.125 20.552734 L 34.535156 20.552734 L 34.535156 19.994141 L 34.535156 19.433594 z M 17.457031 19.492188 L 17.457031 20.052734 L 17.457031 20.613281 L 16.865234 20.613281 L 16.273438 20.613281 L 16.291016 20.070312 L 16.308594 19.527344 L 16.882812 19.509766 L 17.457031 19.492188 z M 18.265625 19.496094 L 18.855469 19.496094 L 19.445312 19.496094 L 19.445312 20.054688 L 19.445312 20.613281 L 18.855469 20.613281 L 18.265625 20.613281 L 18.265625 20.054688 L 18.265625 19.496094 z M 20.314453 19.496094 L 20.904297 19.496094 L 21.494141 19.496094 L 21.494141 20.054688 L 21.494141 20.613281 L 20.904297 20.613281 L 20.314453 20.613281 L 20.314453 20.054688 L 20.314453 19.496094 z M 22.300781 19.496094 L 22.894531 19.496094 L 23.486328 19.496094 L 23.46875 20.039062 L 23.451172 20.582031 L 22.876953 20.601562 L 22.300781 20.619141 L 22.300781 20.056641 L 22.300781 19.496094 z M 24.289062 19.496094 L 24.878906 19.496094 L 25.46875 19.496094 L 25.46875 20.023438 L 25.46875 20.552734 L 24.878906 20.552734 L 24.289062 20.552734 L 24.289062 20.023438 L 24.289062 19.496094 z M 26.212891 19.496094 L 26.833984 19.496094 L 27.455078 19.496094 L 27.455078 20.023438 L 27.455078 20.552734 L 26.833984 20.552734 L 26.212891 20.552734 L 26.212891 20.023438 L 26.212891 19.496094 z M 28.263672 19.496094 L 28.882812 19.496094 L 29.503906 19.496094 L 29.503906 20.023438 L 29.503906 20.552734 L 28.882812 20.552734 L 28.263672 20.552734 L 28.263672 20.023438 L 28.263672 19.496094 z M 30.498047 19.496094 L 31.121094 19.496094 L 31.746094 19.496094 L 31.726562 20.007812 L 31.708984 20.521484 L 31.103516 20.539062 L 30.498047 20.556641 L 30.498047 20.027344 L 30.498047 19.496094 z M 32.486328 19.496094 L 33.105469 19.496094 L 33.726562 19.496094 L 33.726562 20.023438 L 33.726562 20.552734 L 33.105469 20.552734 L 32.486328 20.552734 L 32.486328 20.023438 L 32.486328 19.496094 z M 19.445312 21.105469 L 19.445312 21.667969 L 19.445312 22.228516 L 18.851562 22.228516 L 18.259766 22.228516 L 18.277344 21.685547 L 18.296875 21.142578 L 18.871094 21.123047 L 19.445312 21.105469 z M 22.300781 21.111328 L 22.925781 21.111328 L 23.548828 21.111328 L 23.53125 21.654297 L 23.513672 22.197266 L 22.951172 22.214844 C 22.64212 22.224671 22.369665 22.213619 22.345703 22.189453 C 22.321514 22.165264 22.300781 21.913512 22.300781 21.628906 L 22.300781 21.111328 z M 24.351562 21.111328 L 24.941406 21.111328 L 25.53125 21.111328 L 25.53125 21.638672 L 25.53125 22.166016 L 24.941406 22.166016 L 24.351562 22.166016 L 24.351562 21.638672 L 24.351562 21.111328 z M 26.275391 21.111328 L 26.865234 21.111328 L 27.455078 21.111328 L 27.455078 21.669922 L 27.455078 22.228516 L 26.865234 22.228516 L 26.275391 22.228516 L 26.275391 21.669922 L 26.275391 21.111328 z M 28.324219 21.111328 L 28.914062 21.111328 L 29.503906 21.111328 L 29.503906 21.638672 L 29.503906 22.166016 L 28.914062 22.166016 L 28.324219 22.166016 L 28.324219 21.638672 L 28.324219 21.111328 z M 30.560547 21.111328 L 31.150391 21.111328 L 31.740234 21.111328 L 31.740234 21.638672 L 31.740234 22.166016 L 31.150391 22.166016 L 30.560547 22.166016 L 30.560547 21.638672 L 30.560547 21.111328 z M 32.546875 21.111328 L 33.136719 21.111328 L 33.726562 21.111328 L 33.726562 21.638672 L 33.726562 22.166016 L 33.136719 22.166016 L 32.546875 22.166016 L 32.546875 21.638672 L 32.546875 21.111328 z M 16.371094 21.142578 L 16.929688 21.142578 L 17.488281 21.142578 L 17.505859 21.685547 L 17.523438 22.228516 L 16.929688 22.228516 L 16.333984 22.228516 L 16.353516 21.685547 L 16.371094 21.142578 z M 20.345703 21.142578 L 20.935547 21.142578 L 21.525391 21.142578 L 21.542969 21.685547 L 21.560547 22.228516 L 20.935547 22.228516 L 20.308594 22.228516 L 20.328125 21.685547 L 20.345703 21.142578 z M 34.566406 21.142578 L 35.15625 21.142578 L 35.746094 21.142578 L 35.763672 21.685547 L 35.78125 22.228516 L 35.15625 22.228516 L 34.529297 22.228516 L 34.546875 21.685547 L 34.566406 21.142578 z M 20.5625 24.712891 L 26.089844 24.712891 L 31.615234 24.712891 L 31.615234 25.054688 L 31.615234 25.394531 L 26.089844 25.394531 L 20.5625 25.394531 L 20.5625 25.054688 L 20.5625 24.712891 z M 41.142578 31.964844 L 42.136719 31.964844 L 40.195312 37.509766 L 39.199219 37.509766 L 41.142578 31.964844 z M 23.603516 32.71875 C 23.622345 32.718459 23.642976 32.71875 23.662109 32.71875 C 24.197857 32.71875 24.750026 32.842623 25.15625 33.078125 L 24.796875 33.943359 C 24.402425 33.731441 24.015381 33.625 23.65625 33.625 C 23.167599 33.625 22.990234 33.790034 22.990234 33.996094 C 22.990234 34.626039 25.328125 34.154896 25.328125 35.673828 C 25.328125 36.392082 24.72652 37.003906 23.501953 37.003906 C 22.824915 37.003906 22.154187 36.821584 21.765625 36.550781 L 22.148438 35.691406 C 22.513447 35.932771 23.03094 36.097656 23.507812 36.097656 C 23.99056 36.097656 24.179688 35.961883 24.179688 35.761719 C 24.179688 35.108227 21.835938 35.585394 21.835938 34.054688 C 21.835937 33.330271 22.417274 32.737111 23.603516 32.71875 z M 37.539062 32.71875 C 37.557892 32.718459 37.576569 32.71875 37.595703 32.71875 C 38.131447 32.71875 38.685569 32.842623 39.091797 33.078125 L 38.732422 33.943359 C 38.337968 33.731441 37.948974 33.625 37.589844 33.625 C 37.101192 33.625 36.925781 33.790034 36.925781 33.996094 C 36.925781 34.626039 39.261719 34.154896 39.261719 35.673828 C 39.261719 36.392082 38.662063 37.003906 37.4375 37.003906 C 36.760462 37.003906 36.089738 36.821584 35.701172 36.550781 L 36.083984 35.691406 C 36.449 35.932771 36.966485 36.097656 37.443359 36.097656 C 37.926103 36.097656 38.115234 35.961883 38.115234 35.761719 C 38.115234 35.108227 35.771484 35.585394 35.771484 34.054688 C 35.771484 33.330271 36.352823 32.737111 37.539062 32.71875 z M 10.550781 32.800781 L 11.511719 32.800781 L 12.958984 35.179688 L 14.373047 32.800781 L 15.332031 32.800781 L 15.34375 36.921875 L 14.271484 36.921875 L 14.259766 34.738281 L 13.201172 36.515625 L 12.683594 36.515625 L 11.628906 34.796875 L 11.628906 36.921875 L 10.550781 36.921875 L 10.550781 32.800781 z M 15.669922 32.800781 L 16.900391 32.800781 L 17.876953 34.4375 L 18.853516 32.800781 L 19.984375 32.800781 L 18.40625 35.443359 L 18.40625 36.921875 L 17.240234 36.921875 L 17.240234 35.425781 L 15.669922 32.800781 z M 25.894531 32.800781 L 27.048828 32.800781 L 27.048828 34.513672 L 28.642578 32.800781 L 29.927734 32.800781 L 28.242188 34.625 L 30.015625 36.921875 L 28.660156 36.921875 L 27.484375 35.425781 L 27.048828 35.890625 L 27.048828 36.921875 L 25.894531 36.921875 L 25.894531 32.800781 z M 30.351562 32.800781 L 31.517578 32.800781 L 31.517578 36.921875 L 30.351562 36.921875 L 30.351562 32.800781 z M 32.378906 32.800781 L 33.544922 32.800781 L 33.544922 35.998047 L 35.511719 35.998047 L 35.511719 36.921875 L 32.378906 36.921875 L 32.378906 32.800781 z M 9.7675781 33.335938 L 9.7675781 34.195312 L 7.8886719 34.861328 L 9.7675781 35.525391 L 9.7675781 36.386719 L 6.8652344 35.314453 L 6.8652344 34.408203 L 9.7675781 33.335938 z M 42.232422 33.335938 L 45.134766 34.408203 L 45.134766 35.314453 L 42.232422 36.386719 L 42.232422 35.525391 L 44.111328 34.861328 L 42.232422 34.195312 L 42.232422 33.335938 z "
       transform="matrix(0.26458333,0,0,0.26458333,46.606056,37.595135)" />
  </g>
</svg>
