<?xml version="1.0" encoding="UTF-8" standalone="no"?>
<!-- Created with Inkscape (http://www.inkscape.org/) -->

<svg
   width="13.229168mm"
   height="13.229167mm"
   viewBox="0 0 13.229168 13.229167"
   version="1.1"
   id="svg4683"
   sodipodi:docname="proactive.svg"
   inkscape:version="1.1 (c68e22c387, 2021-05-23)"
   xmlns:inkscape="http://www.inkscape.org/namespaces/inkscape"
   xmlns:sodipodi="http://sodipodi.sourceforge.net/DTD/sodipodi-0.dtd"
   xmlns="http://www.w3.org/2000/svg"
   xmlns:svg="http://www.w3.org/2000/svg">
  <sodipodi:namedview
     id="namedview4685"
     pagecolor="#ffffff"
     bordercolor="#999999"
     borderopacity="1"
     inkscape:pageshadow="0"
     inkscape:pageopacity="0"
     inkscape:pagecheckerboard="0"
     inkscape:document-units="mm"
     showgrid="false"
     inkscape:zoom="5.8725028"
     inkscape:cx="-0.25542772"
     inkscape:cy="13.537669"
     inkscape:window-width="1920"
     inkscape:window-height="1009"
     inkscape:window-x="-8"
     inkscape:window-y="-8"
     inkscape:window-maximized="1"
     inkscape:current-layer="layer1" />
  <defs
     id="defs4680" />
  <g
     inkscape:label="Capa 1"
     inkscape:groupmode="layer"
     id="layer1"
     transform="translate(-36.043689,-73.889564)">
    <path
       id="path4888"
       style="fill:#ffffff;stroke:#000000;stroke-width:0;stroke-linecap:square;stroke-linejoin:round;paint-order:fill markers stroke;stop-color:#000000"
       d="M 25 0 A 24.999999 24.999997 0 0 0 0 25 A 24.999999 24.999997 0 0 0 25 50 A 24.999999 24.999997 0 0 0 50 25 A 24.999999 24.999997 0 0 0 25 0 z M 25.603516 8.9746094 L 27.623047 9.8183594 L 29.642578 10.660156 L 31.462891 12.398438 L 33.28125 14.136719 L 36.214844 20.326172 C 37.828566 23.731224 39.148438 26.681349 39.148438 26.880859 C 39.148438 27.080154 38.293748 27.651724 37.248047 28.150391 L 35.347656 29.056641 L 35.347656 32.052734 L 35.347656 35.048828 L 32.630859 35.048828 L 29.914062 35.048828 L 28.828125 36.136719 L 27.742188 37.222656 L 27.742188 39.123047 L 27.742188 41.025391 L 21.585938 41.025391 L 15.429688 41.025391 L 15.066406 40.660156 L 14.705078 40.296875 L 14.703125 35.363281 L 14.703125 30.429688 L 13.148438 27.441406 C 12.294124 25.798192 11.427484 23.75382 11.222656 22.898438 L 10.851562 21.34375 L 11.443359 18.486328 L 12.037109 15.630859 L 14.019531 13.314453 L 16.001953 10.998047 L 18.205078 9.9980469 L 20.408203 8.9960938 L 23.005859 8.9863281 L 25.603516 8.9746094 z M 25.378906 10.484375 L 22.466797 10.726562 L 19.556641 10.966797 L 17.314453 12.550781 L 15.074219 14.134766 L 14.048828 16.117188 C 13.485376 17.208114 12.887328 18.951499 12.71875 19.990234 L 12.412109 21.878906 L 14.373047 26.222656 L 16.333984 30.566406 L 16.333984 34.980469 L 16.333984 39.392578 L 21.162109 39.392578 L 25.992188 39.392578 L 26.333984 37.566406 L 26.675781 35.738281 L 27.628906 34.876953 L 28.580078 34.015625 L 30.742188 33.755859 C 31.93069 33.612351 33.086481 33.476886 33.310547 33.455078 L 33.716797 33.417969 L 33.716797 30.767578 L 33.716797 28.117188 L 35.347656 27.443359 C 36.243964 27.07187 36.976562 26.581085 36.976562 26.353516 C 36.976562 26.126064 36.01107 23.773047 34.832031 21.125 L 32.689453 16.310547 L 31.277344 14.542969 L 29.867188 12.773438 L 27.623047 11.628906 L 25.378906 10.484375 z M 20.755859 12.775391 L 23.433594 12.775391 L 26.111328 12.775391 L 26.111328 14.134766 L 26.111328 15.494141 L 27.755859 15.357422 L 29.398438 15.21875 L 30.564453 17.230469 L 31.728516 19.242188 L 30.464844 20.263672 L 29.203125 21.287109 L 30.431641 22.148438 L 31.662109 23.009766 L 30.408203 25.242188 L 29.152344 27.474609 L 28.310547 27.146484 C 27.847645 26.965785 27.246928 26.775267 26.974609 26.722656 L 26.478516 26.626953 L 26.136719 27.984375 L 25.796875 29.34375 L 23.238281 29.509766 L 20.679688 29.673828 L 20.679688 28.285156 L 20.679688 26.898438 L 20 26.833984 C 19.066279 26.74577 18.899121 26.771291 17.9375 27.146484 L 17.095703 27.474609 L 15.857422 25.271484 L 14.619141 23.068359 L 15.884766 22.023438 L 17.148438 20.978516 L 15.929688 20.107422 L 14.710938 19.236328 L 15.806641 17.091797 L 16.900391 14.947266 L 18.654297 15.083984 L 20.408203 15.21875 L 20.582031 13.996094 L 20.755859 12.775391 z M 22.310547 14.404297 L 22.310547 15.158203 L 22.310547 15.910156 L 21.021484 16.753906 L 19.732422 17.599609 L 18.650391 17.316406 L 17.570312 17.033203 L 17.255859 17.851562 L 16.943359 18.671875 L 17.724609 19.320312 L 18.507812 19.970703 L 18.507812 21.195312 L 18.507812 22.419922 L 17.724609 23.068359 L 16.943359 23.71875 L 17.246094 24.509766 L 17.548828 25.300781 L 18.509766 24.996094 L 19.46875 24.691406 L 20.888672 25.339844 L 22.310547 25.986328 L 22.310547 26.986328 L 22.310547 27.984375 L 23.138672 27.984375 L 23.966797 27.984375 L 24.464844 26.673828 L 24.962891 25.361328 L 26.003906 25.03125 L 27.044922 24.701172 L 27.867188 25.015625 L 28.6875 25.330078 L 29.048828 24.392578 L 29.408203 23.453125 L 28.753906 23.050781 L 28.101562 22.646484 L 28.037109 21.203125 L 27.974609 19.759766 L 28.695312 19.357422 L 29.416016 18.953125 L 29.046875 17.994141 L 28.677734 17.033203 L 27.603516 17.314453 L 26.529297 17.595703 L 25.505859 16.955078 L 24.482422 16.316406 L 24.482422 15.361328 L 24.482422 14.404297 L 23.396484 14.404297 L 22.310547 14.404297 z M 21.984375 18.75 L 23.486328 18.75 L 24.988281 18.75 L 25.587891 19.873047 L 26.189453 20.996094 L 25.324219 22.318359 L 24.457031 23.638672 L 23.220703 23.638672 L 21.984375 23.638672 L 21.332031 22.986328 L 20.679688 22.335938 L 20.679688 21.195312 L 20.679688 20.054688 L 21.332031 19.402344 L 21.984375 18.75 z M 22.310547 20.300781 L 22.310547 21.195312 L 22.310547 22.089844 L 23.154297 21.914062 C 23.61826 21.817344 24.044578 21.497871 24.103516 21.203125 L 24.103516 21.201172 L 24.210938 20.666016 L 23.259766 20.484375 L 22.310547 20.300781 z "
       transform="matrix(0.26458333,0,0,0.26458333,36.043689,73.889564)" />
  </g>
</svg>
