<?xml version="1.0" encoding="UTF-8" standalone="no"?>
<!-- Created with Inkscape (http://www.inkscape.org/) -->

<svg
   width="13.758333mm"
   height="13.758333mm"
   viewBox="0 0 13.758333 13.758333"
   version="1.1"
   id="svg5"
   inkscape:version="1.1 (c68e22c387, 2021-05-23)"
   sodipodi:docname="python_icon.svg"
   xmlns:inkscape="http://www.inkscape.org/namespaces/inkscape"
   xmlns:sodipodi="http://sodipodi.sourceforge.net/DTD/sodipodi-0.dtd"
   xmlns="http://www.w3.org/2000/svg"
   xmlns:svg="http://www.w3.org/2000/svg">
  <sodipodi:namedview
     id="namedview7"
     pagecolor="#ffffff"
     bordercolor="#999999"
     borderopacity="1"
     inkscape:pageshadow="0"
     inkscape:pageopacity="0"
     inkscape:pagecheckerboard="0"
     inkscape:document-units="mm"
     showgrid="false"
     inkscape:zoom="5.8725028"
     inkscape:cx="47.254128"
     inkscape:cy="29.714758"
     inkscape:window-width="1920"
     inkscape:window-height="1009"
     inkscape:window-x="-8"
     inkscape:window-y="-8"
     inkscape:window-maximized="1"
     inkscape:current-layer="layer1" />
  <defs
     id="defs2" />
  <g
     inkscape:label="Capa 1"
     inkscape:groupmode="layer"
     id="layer1"
     transform="translate(-46.606056,-37.595135)">
    <path
       id="path968"
       style="color:#000000;fill:#ffffff;stroke-width:10.3838;stroke-linecap:round;stroke-linejoin:round;-inkscape-stroke:none;paint-order:markers stroke fill;fill-opacity:1"
       d="M 26 0 A 26 26 0 0 0 0 26 A 26 26 0 0 0 26 52 A 26 26 0 0 0 52 26 A 26 26 0 0 0 26 0 z M 24.865234 7.6640625 C 25.359434 7.6613497 25.860123 7.6733711 26.357422 7.7011719 C 27.741379 7.7784897 28.463313 7.8791339 29.591797 8.1503906 C 31.108888 8.5150168 32.356231 9.1992503 33.087891 10.068359 C 33.414347 10.456143 33.782176 11.19406 33.880859 11.654297 C 33.928172 11.875029 33.944426 13.508172 33.929688 16.722656 L 33.908203 21.464844 L 33.738281 21.962891 C 33.485057 22.708826 33.248356 23.103393 32.744141 23.613281 C 32.119483 24.244973 31.313754 24.66954 30.273438 24.917969 C 29.876092 25.012873 29.147705 25.032897 24.521484 25.070312 L 19.224609 25.113281 L 18.712891 25.289062 C 17.291614 25.778205 16.361963 26.703615 15.865234 28.123047 C 15.581241 28.93461 15.541828 29.356266 15.507812 31.945312 L 15.474609 34.431641 L 13.775391 34.425781 C 12.407617 34.421208 11.98016 34.397425 11.587891 34.306641 C 9.1992815 33.753919 7.6240809 31.14963 7.3613281 27.314453 C 7.1460538 24.1724 7.4788969 21.705143 8.3496094 19.972656 C 8.6808132 19.313643 8.9049604 18.989741 9.3886719 18.472656 C 10.065298 17.749342 10.847564 17.308612 11.878906 17.070312 C 12.365596 16.957949 12.808022 16.950776 18.785156 16.949219 L 25.171875 16.947266 L 25.171875 16.394531 L 25.171875 15.841797 L 20.849609 15.841797 L 16.527344 15.841797 L 16.527344 13.419922 L 16.527344 11 L 16.726562 10.578125 C 17.170048 9.6406774 17.990894 8.9806521 19.345703 8.4707031 C 20.681508 7.9679041 22.723701 7.6758179 24.865234 7.6640625 z M 20.111328 10.544922 C 19.777707 10.550916 19.684574 10.584723 19.472656 10.728516 C 19.046877 11.017468 18.845067 11.373343 18.814453 11.884766 C 18.795329 12.205617 18.817519 12.377656 18.904297 12.560547 C 19.048429 12.864285 19.403453 13.226887 19.671875 13.34375 C 19.935818 13.458633 20.568927 13.460853 20.839844 13.347656 C 21.445649 13.094541 21.761584 12.558529 21.716797 11.855469 C 21.684951 11.355297 21.477941 10.998247 21.064453 10.724609 C 20.824861 10.566096 20.733551 10.544922 20.269531 10.544922 C 20.210925 10.544922 20.158988 10.544066 20.111328 10.544922 z M 35.181641 17.142578 L 37.039062 17.142578 C 38.869677 17.142578 38.903416 17.143719 39.394531 17.310547 C 41.386414 17.98712 42.615864 19.827684 43.189453 22.992188 C 43.322379 23.727001 43.337176 24.005487 43.337891 25.916016 C 43.338609 27.850332 43.325932 28.09438 43.189453 28.808594 C 42.792542 30.885648 42.184355 32.188971 41.144531 33.189453 C 40.457084 33.850897 39.838183 34.19581 38.923828 34.429688 C 38.424613 34.557396 38.223013 34.560547 31.921875 34.560547 L 25.431641 34.560547 L 25.431641 35.146484 L 25.431641 35.730469 L 29.769531 35.748047 L 34.109375 35.763672 L 34.128906 37.876953 C 34.150419 40.259673 34.107162 40.610951 33.716797 41.255859 C 32.958208 42.509105 31.132061 43.357814 28.455078 43.699219 C 27.319175 43.844088 24.337076 43.874776 23.222656 43.753906 C 19.910078 43.394658 17.81161 42.325696 17.021484 40.59375 C 16.93482 40.40378 16.831973 40.075388 16.792969 39.863281 C 16.696961 39.341397 16.697082 31.342363 16.792969 30.482422 C 17.010843 28.528542 18.020532 27.381942 20.134766 26.689453 C 20.58945 26.540502 20.592912 26.540706 25.886719 26.5 C 31.814877 26.454404 31.587318 26.471716 32.628906 25.974609 C 33.997738 25.321322 34.914593 23.903831 35.119141 22.125 C 35.152741 21.832899 35.18138 20.591594 35.181641 19.367188 L 35.181641 17.142578 z M 30.679688 37.675781 C 30.262781 37.684049 29.848195 37.868605 29.548828 38.255859 C 28.933997 39.051182 29.30007 40.281181 30.238281 40.570312 C 30.62574 40.689821 30.800596 40.691636 31.189453 40.576172 C 31.89277 40.367308 32.386821 39.5108 32.195312 38.832031 C 31.983155 38.08018 31.33006 37.662883 30.679688 37.675781 z "
       transform="matrix(0.26458333,0,0,0.26458333,46.606056,37.595135)" />
  </g>
</svg>
