<?xml version="1.0" encoding="UTF-8" standalone="no"?>
<!-- Created with Inkscape (http://www.inkscape.org/) -->

<svg
   width="13.758333mm"
   height="13.758333mm"
   viewBox="0 0 13.758333 13.758333"
   version="1.1"
   id="svg5"
   inkscape:version="1.1 (c68e22c387, 2021-05-23)"
   sodipodi:docname="ubuntu-icon.svg"
   xmlns:inkscape="http://www.inkscape.org/namespaces/inkscape"
   xmlns:sodipodi="http://sodipodi.sourceforge.net/DTD/sodipodi-0.dtd"
   xmlns="http://www.w3.org/2000/svg"
   xmlns:svg="http://www.w3.org/2000/svg">
  <sodipodi:namedview
     id="namedview7"
     pagecolor="#ffffff"
     bordercolor="#999999"
     borderopacity="1"
     inkscape:pageshadow="0"
     inkscape:pageopacity="0"
     inkscape:pagecheckerboard="0"
     inkscape:document-units="mm"
     showgrid="false"
     inkscape:zoom="5.6568543"
     inkscape:cx="20.771262"
     inkscape:cy="17.058951"
     inkscape:window-width="1920"
     inkscape:window-height="1009"
     inkscape:window-x="-8"
     inkscape:window-y="-8"
     inkscape:window-maximized="1"
     inkscape:current-layer="layer1" />
  <defs
     id="defs2" />
  <g
     inkscape:label="Capa 1"
     inkscape:groupmode="layer"
     id="layer1"
     transform="translate(-46.606056,-37.595135)">
    <path
       id="path11922"
       style="fill:#ffffff;fill-opacity:1;stroke:none;stroke-width:0.39521;stroke-linecap:square;stroke-linejoin:round;stroke-miterlimit:4;stroke-dasharray:none;stroke-opacity:1;paint-order:fill markers stroke;stop-color:#000000"
       d="M 26 0 A 26 26 0 0 0 0 26 A 26 26 0 0 0 26 52 A 26 26 0 0 0 52 26 A 26 26 0 0 0 26 0 z M 34.15625 8.2695312 C 34.218209 8.2691712 34.288034 8.2696872 34.367188 8.2695312 C 35.11568 8.2680271 35.244488 8.2905764 35.683594 8.5 C 37.081898 9.1667162 37.815695 10.6299 37.501953 12.121094 C 37.379383 12.703678 37.106871 13.193914 36.648438 13.652344 C 36.23975 14.061032 35.737884 14.362509 35.208984 14.515625 C 35.056594 14.559732 34.032123 14.594172 33.832031 14.5625 C 33.181503 14.459508 32.527285 14.124876 32.101562 13.675781 C 31.767718 13.323605 31.438021 12.775078 31.304688 12.349609 C 31.170401 11.921124 31.173064 10.860736 31.308594 10.46875 C 31.647277 9.4892854 32.446193 8.709377 33.472656 8.3535156 C 33.673 8.2840668 33.722539 8.2720524 34.15625 8.2695312 z M 26.078125 11.708984 C 27.303176 11.709362 28.197832 11.809968 29.351562 12.078125 L 29.765625 12.173828 L 29.927734 12.652344 C 30.130052 13.246368 30.297462 13.6006 30.570312 14.007812 C 30.94901 14.572984 31.452538 15.051279 32.027344 15.392578 C 33.057182 16.004064 34.169816 16.172216 35.455078 15.912109 C 35.928385 15.816336 36.018943 15.824235 36.199219 15.978516 C 36.345713 16.103883 36.964556 16.838489 37.306641 17.291016 C 38.440941 18.791526 39.336971 20.643214 39.779297 22.40625 C 39.962339 23.135767 40.106695 24.052398 40.126953 24.617188 L 40.132812 24.814453 L 39.705078 24.853516 C 39.467157 24.874681 38.467183 24.899271 37.455078 24.910156 L 35.632812 24.929688 L 35.53125 24.398438 C 35.353196 23.463292 35.142462 22.736431 34.849609 22.046875 C 33.649556 19.221209 31.124889 17.135684 28.111328 16.480469 C 27.311796 16.306648 27.05638 16.280948 26.078125 16.28125 C 25.367702 16.281465 25.097576 16.294804 24.808594 16.337891 C 24.007954 16.457702 23.409519 16.612079 22.560547 16.919922 C 22.018355 17.116533 22.092257 17.13379 21.878906 16.771484 C 21.724059 16.508543 19.869141 13.173525 19.869141 13.158203 C 19.869141 13.135148 20.477297 12.842697 20.755859 12.732422 C 21.170817 12.568164 21.950078 12.315128 22.484375 12.169922 C 23.672076 11.84715 24.754209 11.708576 26.078125 11.708984 z M 18.126953 14.185547 C 18.213504 14.185547 18.77741 15.077286 20.015625 17.175781 L 20.505859 18.007812 L 20.134766 18.306641 C 19.256067 19.010786 18.444464 19.941675 17.853516 20.925781 C 16.553952 23.089958 16.174845 25.68058 16.794922 28.148438 C 17.299946 30.158408 18.43155 31.934877 20.087891 33.3125 C 20.284539 33.47604 20.454072 33.623164 20.464844 33.640625 C 20.487521 33.677664 20.196163 34.191142 19.308594 35.673828 C 18.356931 37.263611 18.226621 37.462891 18.140625 37.462891 C 18.101167 37.462891 17.967152 37.395461 17.84375 37.3125 C 17.093601 36.808258 16.000446 35.786976 15.246094 34.886719 C 14.142479 33.569644 13.295713 32.106456 12.761719 30.595703 C 12.595193 30.124638 12.404297 29.522002 12.404297 29.464844 C 12.404297 29.442545 12.544727 29.274322 12.714844 29.089844 C 13.386848 28.361026 13.753302 27.6897 13.917969 26.890625 C 14.073496 26.135944 14.044759 25.139672 13.847656 24.462891 C 13.639896 23.74958 13.330529 23.235913 12.671875 22.505859 L 12.382812 22.185547 L 12.621094 21.480469 C 12.895828 20.669458 13.110751 20.144612 13.431641 19.503906 C 14.069527 18.230258 14.874987 17.110486 15.921875 16.041016 C 16.851835 15.09099 17.927228 14.185547 18.126953 14.185547 z M 9.46875 22.673828 C 10.224735 22.67401 10.332893 22.692084 10.705078 22.878906 C 11.4439 23.249527 12.008423 23.810525 12.34375 24.507812 C 12.533482 24.902323 12.58312 25.098338 12.607422 25.566406 C 12.634257 26.085883 12.585637 26.52559 12.464844 26.859375 C 12.228245 27.513245 11.690466 28.16636 11.035156 28.595703 C 10.594683 28.884308 10.284983 28.958131 9.4375 28.976562 C 8.9511164 28.987145 8.7751435 28.981251 8.6542969 28.947266 C 8.4257488 28.882673 7.9692242 28.678526 7.7246094 28.533203 C 7.2485476 28.250381 6.8717127 27.833812 6.5664062 27.25 C 6.3281827 26.794454 6.3089716 26.685777 6.3085938 25.808594 C 6.3082196 24.941071 6.3226901 24.86619 6.5683594 24.402344 C 6.9460854 23.689215 7.4117118 23.243234 8.1347656 22.902344 C 8.588891 22.688234 8.6753894 22.673601 9.46875 22.673828 z M 35.625 26.689453 L 36.59375 26.708984 C 37.607744 26.730528 38.936565 26.774049 39.685547 26.808594 L 40.126953 26.828125 L 40.109375 27.228516 C 40.074981 28.009876 39.761815 29.453729 39.410156 30.457031 C 38.776205 32.265645 37.640023 34.145203 36.392578 35.447266 C 36.200162 35.64811 36.010083 35.821664 35.96875 35.832031 C 35.927402 35.842236 35.780304 35.819298 35.642578 35.783203 C 35.049268 35.627033 34.191206 35.581898 33.644531 35.675781 C 32.092344 35.942276 30.779184 36.950564 30.164062 38.349609 C 30.102835 38.488847 29.993207 38.804897 29.919922 39.050781 L 29.785156 39.498047 L 29.132812 39.626953 C 27.947595 39.860868 27.337049 39.911957 25.818359 39.90625 C 25.229535 39.904047 24.624068 39.891315 24.472656 39.876953 C 23.686515 39.802194 22.717555 39.584913 21.734375 39.263672 C 20.713494 38.930091 19.929688 38.609765 19.929688 38.525391 C 19.929688 38.347753 21.820794 34.951836 22.089844 34.646484 C 22.128622 34.602453 22.186671 34.617549 22.705078 34.794922 C 23.995798 35.236677 24.459707 35.319682 25.726562 35.34375 C 27.555019 35.378522 28.550624 35.19124 30.064453 34.527344 C 31.575051 33.864845 33.047999 32.586867 34.046875 31.070312 C 34.837401 29.870079 35.336741 28.585769 35.529297 27.265625 C 35.564069 27.028082 35.600758 26.801619 35.609375 26.761719 L 35.625 26.689453 z M 34.435547 37.070312 C 34.652103 37.06905 34.857312 37.075778 34.992188 37.09375 C 35.638202 37.179848 36.383245 37.619818 36.833984 38.181641 C 37.585029 39.11778 37.779848 40.394247 37.333984 41.464844 C 36.79101 42.76863 35.370779 43.57506 33.939453 43.394531 C 33.498673 43.338934 33.067436 43.197026 32.722656 42.994141 C 32.478726 42.850594 31.936343 42.302692 31.730469 41.990234 C 31.366273 41.437501 31.252094 41.123181 31.216797 40.587891 C 31.178057 40.000692 31.22215 39.513905 31.345703 39.185547 C 31.551007 38.640169 31.954586 38.089518 32.419922 37.71875 C 32.694164 37.500256 33.230448 37.219957 33.525391 37.140625 C 33.681367 37.098672 34.074619 37.072418 34.435547 37.070312 z "
       transform="matrix(0.26458333,0,0,0.26458333,46.606056,37.595135)" />
  </g>
</svg>
