<?xml version="1.0" encoding="UTF-8" standalone="no"?>
<!-- Created with Inkscape (http://www.inkscape.org/) -->

<svg
   width="13.758333mm"
   height="13.758333mm"
   viewBox="0 0 13.758333 13.758333"
   version="1.1"
   id="svg5"
   inkscape:version="1.1 (c68e22c387, 2021-05-23)"
   sodipodi:docname="vue_icon.svg"
   xmlns:inkscape="http://www.inkscape.org/namespaces/inkscape"
   xmlns:sodipodi="http://sodipodi.sourceforge.net/DTD/sodipodi-0.dtd"
   xmlns="http://www.w3.org/2000/svg"
   xmlns:svg="http://www.w3.org/2000/svg">
  <sodipodi:namedview
     id="namedview7"
     pagecolor="#ffffff"
     bordercolor="#999999"
     borderopacity="1"
     inkscape:pageshadow="0"
     inkscape:pageopacity="0"
     inkscape:pagecheckerboard="0"
     inkscape:document-units="mm"
     showgrid="false"
     inkscape:zoom="4"
     inkscape:cx="6.125"
     inkscape:cy="43.625"
     inkscape:window-width="1920"
     inkscape:window-height="1009"
     inkscape:window-x="-8"
     inkscape:window-y="-8"
     inkscape:window-maximized="1"
     inkscape:current-layer="layer1" />
  <defs
     id="defs2" />
  <g
     inkscape:label="Capa 1"
     inkscape:groupmode="layer"
     id="layer1"
     transform="translate(-46.606056,-37.595135)">
    <path
       id="path2810"
       style="fill:#ffffff;fill-opacity:1;stroke:none;stroke-width:12.6138;stroke-linecap:round;stroke-linejoin:round;paint-order:markers stroke fill;stop-color:#000000"
       d="M 26 0 A 26 26 0 0 0 0 26 A 26 26 0 0 0 26 52 A 26 26 0 0 0 52 26 A 26 26 0 0 0 26 0 z M 11.335938 16.847656 L 11.337891 16.847656 C 12.503799 16.845816 14.114461 16.847656 15.884766 16.847656 L 22.322266 16.847656 C 22.391847 16.847316 22.454707 16.883567 22.490234 16.943359 L 24.462891 20.302734 C 25.189686 21.541089 25.677705 22.374564 25.990234 22.900391 C 26.116055 23.112021 26.193259 23.243381 26.263672 23.359375 C 26.362714 23.188193 26.501923 22.952073 26.675781 22.650391 C 27.026215 22.042325 27.507621 21.199426 28.035156 20.28125 L 29.955078 16.943359 C 29.990681 16.883681 30.053466 16.847335 30.123047 16.847656 L 36.605469 16.847656 L 43.085938 16.847656 C 43.237572 16.847807 43.331941 17.011617 43.255859 17.142578 L 43.21875 17.208984 C 43.200521 17.240411 39.412341 23.774748 34.810547 31.714844 C 32.509639 35.684912 30.416292 39.293423 28.898438 41.910156 C 28.139512 43.218523 27.523446 44.276556 27.097656 45.009766 C 26.884767 45.376372 26.721854 45.66609 26.609375 45.859375 C 26.553136 45.95598 26.505665 46.03034 26.476562 46.080078 C 26.4622 46.10491 26.454825 46.119962 26.447266 46.132812 C 26.443278 46.139238 26.441823 46.142705 26.439453 46.146484 C 26.437072 46.150415 26.277344 46.25 26.277344 46.25 C 26.202547 46.255858 26.131923 46.218889 26.09375 46.154297 L 26.09375 46.146484 C 26.091104 46.142327 26.089717 46.139238 26.085938 46.132812 C 26.078 46.119811 26.063568 46.105023 26.048828 46.080078 C 26.01965 46.030151 25.980294 45.956395 25.923828 45.859375 C 25.810888 45.665364 25.641504 45.377816 25.427734 45.009766 C 25.000228 44.273691 24.381105 43.208114 23.619141 41.894531 C 22.095212 39.267374 19.995689 35.64237 17.685547 31.65625 C 13.065286 23.684043 9.2803296 17.148247 9.2773438 17.142578 L 9.34375 16.892578 C 9.34375 16.892578 9.4234993 16.855514 9.4238281 16.855469 C 9.4242061 16.855427 9.436592 16.855654 9.4394531 16.855469 C 9.4451224 16.855102 9.4493455 16.855593 9.453125 16.855469 C 9.4606841 16.855227 9.4730364 16.85565 9.484375 16.855469 C 9.5073167 16.85511 9.5369159 16.855805 9.5800781 16.855469 C 9.6663647 16.8548 9.7918403 16.856081 9.9550781 16.855469 C 10.281588 16.853957 10.752979 16.848578 11.335938 16.847656 z M 15.882812 17.238281 C 14.112675 17.238281 12.501532 17.244253 11.335938 17.246094 C 10.753138 17.247016 10.281062 17.244873 9.9550781 17.246094 C 9.8816041 17.24637 9.8433988 17.245807 9.7851562 17.246094 C 9.9301465 17.496869 13.490471 23.645564 18.017578 31.457031 C 18.020224 31.456982 18.020917 31.456982 18.023438 31.457031 C 18.025199 31.460433 18.021676 31.459852 18.023438 31.462891 C 20.332086 35.446433 22.435918 39.069641 23.958984 41.695312 C 24.72093 43.008857 25.339758 44.075024 25.767578 44.810547 C 25.981307 45.178525 26.150853 45.464427 26.263672 45.658203 C 26.265097 45.660849 26.262266 45.663601 26.263672 45.666016 C 26.26594 45.662123 26.267328 45.661983 26.269531 45.658203 C 26.381881 45.465134 26.54495 45.182945 26.757812 44.816406 C 27.183542 44.083303 27.799687 43.017321 28.558594 41.708984 C 30.07641 39.092315 32.171771 35.485656 34.472656 31.515625 C 39.001823 23.700847 42.605004 17.481721 42.746094 17.238281 L 36.605469 17.238281 L 36.246094 17.238281 C 36.161876 17.384156 33.985549 21.158376 31.273438 25.861328 C 28.523177 30.630442 26.269476 34.532969 26.265625 34.533203 C 26.261845 34.533441 26.155559 34.358324 26.03125 34.144531 C 25.736485 33.637523 22.636545 28.305512 22.056641 27.308594 C 21.810026 26.88464 21.452233 26.269004 21.261719 25.941406 C 20.8607 25.251824 20.306669 24.300038 19.664062 23.195312 C 19.415219 22.767509 19.055741 22.149864 18.865234 21.822266 C 18.434209 21.081062 17.769531 19.938473 17.140625 18.857422 C 16.876058 18.402635 16.531684 17.810802 16.375 17.541016 L 16.199219 17.238281 L 15.882812 17.238281 z "
       transform="matrix(0.26458333,0,0,0.26458333,46.606056,37.595135)" />
  </g>
</svg>
