<?xml version="1.0" encoding="UTF-8" standalone="no"?>
<!-- Created with Inkscape (http://www.inkscape.org/) -->

<svg
   width="13.758333mm"
   height="13.758333mm"
   viewBox="0 0 13.758333 13.758333"
   version="1.1"
   id="svg5"
   inkscape:version="1.1 (c68e22c387, 2021-05-23)"
   sodipodi:docname="wsl.svg"
   xmlns:inkscape="http://www.inkscape.org/namespaces/inkscape"
   xmlns:sodipodi="http://sodipodi.sourceforge.net/DTD/sodipodi-0.dtd"
   xmlns="http://www.w3.org/2000/svg"
   xmlns:svg="http://www.w3.org/2000/svg">
  <sodipodi:namedview
     id="namedview7"
     pagecolor="#ffffff"
     bordercolor="#999999"
     borderopacity="1"
     inkscape:pageshadow="0"
     inkscape:pageopacity="0"
     inkscape:pagecheckerboard="0"
     inkscape:document-units="mm"
     showgrid="false"
     inkscape:zoom="11.313709"
     inkscape:cx="30.273009"
     inkscape:cy="30.626562"
     inkscape:window-width="1920"
     inkscape:window-height="1009"
     inkscape:window-x="-8"
     inkscape:window-y="-8"
     inkscape:window-maximized="1"
     inkscape:current-layer="layer1" />
  <defs
     id="defs2" />
  <g
     inkscape:label="Capa 1"
     inkscape:groupmode="layer"
     id="layer1"
     transform="translate(-46.606056,-37.595135)">
    <path
       id="path11922"
       style="fill:#ffffff;fill-opacity:1;stroke:none;stroke-width:0.39521;stroke-linecap:square;stroke-linejoin:round;stroke-miterlimit:4;stroke-dasharray:none;stroke-opacity:1;paint-order:fill markers stroke;stop-color:#000000"
       d="M 26 0 A 26 26 0 0 0 0 26 A 26 26 0 0 0 26 52 A 26 26 0 0 0 52 26 A 26 26 0 0 0 26 0 z M 30.605469 15.669922 C 32.037645 15.669922 33.502691 16.012423 34.560547 16.679688 L 33.746094 18.681641 C 32.688238 18.079483 31.598879 17.785156 30.589844 17.785156 C 29.02747 17.785156 28.425781 18.371802 28.425781 19.087891 C 28.425781 21.187327 35.048828 19.739272 35.048828 23.921875 C 35.048828 25.82602 33.469788 27.453125 30.214844 27.453125 C 28.408351 27.453125 26.585204 26.915952 25.576172 26.134766 L 26.472656 24.148438 C 27.432868 24.84825 28.863391 25.337891 30.230469 25.337891 C 31.792842 25.337891 32.427734 24.817 32.427734 24.117188 C 32.427734 21.985198 25.804688 23.450177 25.804688 19.21875 C 25.804688 17.282056 27.366799 15.669922 30.605469 15.669922 z M 6.7109375 15.865234 L 9.4453125 15.865234 L 12.015625 23.873047 L 14.701172 15.865234 L 17.142578 15.865234 L 19.746094 23.9375 L 22.398438 15.865234 L 24.921875 15.865234 L 21.195312 27.257812 L 18.363281 27.257812 L 15.857422 19.542969 L 13.269531 27.257812 L 10.453125 27.257812 L 6.7109375 15.865234 z M 36.941406 15.865234 L 39.576172 15.865234 L 39.576172 25.109375 L 45.289062 25.109375 L 45.289062 27.257812 L 36.941406 27.257812 L 36.941406 15.865234 z M 38.035156 30.148438 C 38.069098 30.147794 38.105489 30.148438 38.144531 30.148438 C 38.300701 30.148437 38.427734 30.153731 38.427734 30.160156 C 38.427734 30.166581 38.465583 30.180004 38.509766 30.189453 C 38.719983 30.23356 38.95368 30.375219 39.078125 30.533203 C 39.169174 30.648781 39.269767 30.844367 39.316406 31 C 39.402164 31.286148 39.429688 31.558747 39.429688 32.09375 C 39.429702 32.583804 39.450214 32.699413 39.580078 32.960938 C 39.656992 33.115897 39.777585 33.289628 40.011719 33.582031 C 40.245331 33.873773 40.379294 34.062714 40.505859 34.273438 C 40.874137 34.886536 40.999702 35.487656 40.865234 36.005859 C 40.84936 36.067428 40.840034 36.122115 40.845703 36.126953 C 40.851372 36.131867 40.891717 36.161397 40.933594 36.191406 C 41.035906 36.264616 41.087286 36.366956 41.154297 36.626953 C 41.184911 36.745668 41.223101 36.856054 41.242188 36.882812 C 41.260706 36.908513 41.316353 36.983884 41.367188 37.050781 C 41.418021 37.117679 41.468122 37.195847 41.478516 37.224609 C 41.489098 37.253334 41.502962 37.277344 41.509766 37.277344 C 41.516191 37.277344 41.521484 37.327028 41.521484 37.388672 C 41.521484 37.450316 41.515372 37.501953 41.507812 37.501953 C 41.500254 37.501953 41.491242 37.515376 41.486328 37.53125 C 41.462517 37.606349 41.339082 37.694356 41.0625 37.835938 C 40.685983 38.028692 40.61933 38.075649 40.402344 38.294922 C 40.299578 38.398745 40.183234 38.505171 40.144531 38.53125 C 40.052689 38.593121 39.870918 38.679728 39.808594 38.691406 C 39.781381 38.69632 39.759766 38.705332 39.759766 38.712891 C 39.759766 38.720072 39.675031 38.726562 39.572266 38.726562 C 39.45767 38.726562 39.384766 38.720385 39.384766 38.710938 C 39.384766 38.702623 39.375439 38.697266 39.365234 38.697266 C 39.322904 38.696937 39.186933 38.620868 39.121094 38.560547 C 39.041535 38.487678 38.94352 38.342339 38.929688 38.279297 L 38.919922 38.238281 L 38.751953 38.228516 C 38.659884 38.223224 38.484628 38.204621 38.361328 38.1875 C 38.080169 38.148155 37.891806 38.153679 37.539062 38.216797 C 37.399334 38.241742 37.262634 38.263672 37.236328 38.263672 C 37.196454 38.263679 37.181092 38.274217 37.142578 38.330078 C 37.075567 38.427477 37.00545 38.491907 36.908203 38.542969 C 36.792209 38.603857 36.685016 38.625983 36.515625 38.625 C 36.293049 38.623704 36.11587 38.577379 35.791016 38.431641 C 35.700609 38.391086 35.582739 38.346797 35.529297 38.333984 C 35.430765 38.310551 35.381277 38.302434 34.986328 38.248047 C 34.674819 38.205187 34.542318 38.146727 34.486328 38.029297 C 34.4731 38.001328 34.457597 37.978516 34.451172 37.978516 C 34.444369 37.978516 34.4375 37.90859 34.4375 37.822266 C 34.4375 37.746732 34.443902 37.680709 34.449219 37.666016 C 34.455644 37.666016 34.478318 37.607787 34.498047 37.537109 L 34.533203 37.408203 L 34.505859 37.185547 C 34.490741 37.061125 34.483746 36.927159 34.488281 36.880859 C 34.506801 36.701445 34.631279 36.564894 34.853516 36.484375 C 35.077264 36.403304 35.107692 36.380004 35.251953 36.185547 C 35.2916 36.132104 35.33831 36.073849 35.355469 36.054688 C 35.383815 36.022939 35.38716 36.00068 35.388672 35.800781 C 35.389855 35.637317 35.399261 35.540842 35.423828 35.423828 C 35.539142 34.873536 35.860337 34.266388 36.376953 33.621094 C 36.752298 33.152266 36.879464 32.739462 36.841797 32.121094 C 36.817986 31.729327 36.832606 31.234191 36.873047 31.074219 C 36.988058 30.616083 37.206175 30.367605 37.609375 30.230469 C 37.667693 30.210815 37.747009 30.188923 37.787109 30.183594 C 37.82721 30.178302 37.861328 30.167337 37.861328 30.160156 C 37.861328 30.15477 37.933332 30.150368 38.035156 30.148438 z M 18.976562 30.175781 L 18.976562 32.193359 L 18.976562 34.212891 L 18.884766 34.214844 C 18.834687 34.216238 17.890472 34.224485 16.785156 34.232422 C 15.679837 34.240737 14.683626 34.248488 14.572266 34.25 L 14.371094 34.251953 L 14.371094 32.550781 L 14.371094 30.847656 L 16.65625 30.513672 C 17.912988 30.330289 18.948969 30.179019 18.958984 30.177734 L 18.976562 30.175781 z M 25.650391 30.677734 L 27.75 30.677734 L 27.75 33.445312 L 30.580078 33.445312 L 30.580078 35.429688 L 27.75 35.429688 L 27.75 38.197266 L 25.650391 38.197266 L 25.650391 35.429688 L 22.833984 35.429688 L 22.833984 33.445312 L 25.650391 33.445312 L 25.650391 30.677734 z M 13.951172 30.908203 L 13.951172 32.582031 L 13.951172 34.253906 L 13.783203 34.257812 C 13.69068 34.259249 13.04485 34.262223 12.349609 34.265625 C 11.654369 34.269151 10.949892 34.273879 10.783203 34.275391 L 10.480469 34.279297 L 10.478516 32.830078 L 10.478516 31.382812 C 10.478516 31.38253 11.251805 31.275366 12.199219 31.146484 C 13.146633 31.017602 13.929843 30.911479 13.9375 30.910156 L 13.951172 30.908203 z M 38.345703 31.337891 C 38.185111 31.337687 38.058364 31.430452 37.974609 31.609375 C 37.934395 31.695284 37.928679 31.725085 37.927734 31.841797 L 37.927734 31.974609 L 38.03125 32.009766 C 38.088774 32.029041 38.138584 32.044544 38.140625 32.044922 C 38.142677 32.045307 38.144531 32.008181 38.144531 31.960938 C 38.144682 31.871665 38.19168 31.743629 38.238281 31.705078 C 38.283106 31.668039 38.347275 31.659745 38.396484 31.683594 C 38.528088 31.747317 38.562781 32.058324 38.451172 32.169922 C 38.426605 32.194489 38.428375 32.197169 38.482422 32.21875 C 38.513792 32.231222 38.559342 32.250418 38.583984 32.261719 C 38.626239 32.281372 38.63224 32.279982 38.664062 32.242188 C 38.682582 32.220266 38.711394 32.166297 38.728516 32.121094 C 38.812686 31.898593 38.769377 31.641405 38.619141 31.470703 C 38.536482 31.37682 38.457577 31.338004 38.345703 31.337891 z M 37.28125 31.417969 C 37.243394 31.418668 37.206202 31.430424 37.169922 31.455078 C 36.977355 31.585925 36.937744 32.001947 37.097656 32.222656 C 37.122601 32.25705 37.147468 32.285156 37.152344 32.285156 C 37.157257 32.285156 37.179276 32.270914 37.203125 32.253906 C 37.2543 32.217623 37.257452 32.205422 37.21875 32.15625 C 37.179821 32.106776 37.153316 31.973295 37.166016 31.888672 C 37.178488 31.804804 37.234498 31.732422 37.287109 31.732422 C 37.364212 31.732422 37.441406 31.867137 37.441406 32.001953 C 37.441406 32.027654 37.4467 32.045728 37.453125 32.042969 C 37.459172 32.040229 37.496152 32.025262 37.535156 32.009766 L 37.605469 31.982422 L 37.605469 31.878906 C 37.605469 31.619725 37.445291 31.414939 37.28125 31.417969 z M 37.699219 32.054688 C 37.633696 32.057598 37.602811 32.066914 37.560547 32.087891 C 37.475621 32.130448 37.052054 32.468794 37.027344 32.513672 C 36.977227 32.604683 37.038208 32.7289 37.181641 32.830078 C 37.228318 32.86296 37.313229 32.927857 37.371094 32.974609 C 37.484706 33.066376 37.59893 33.135437 37.671875 33.154297 C 37.753399 33.175462 37.877202 33.157459 37.994141 33.107422 C 38.055785 33.080965 38.15122 33.033815 38.205078 33.001953 C 38.258936 32.970205 38.343104 32.927592 38.392578 32.908203 C 38.582613 32.833709 38.721037 32.710234 38.751953 32.587891 C 38.77652 32.490076 38.686636 32.388282 38.517578 32.324219 C 38.456236 32.300786 38.297316 32.230936 38.166016 32.167969 L 37.927734 32.054688 L 37.779297 32.054688 C 37.747898 32.054698 37.72106 32.053717 37.699219 32.054688 z M 37.617188 32.148438 C 37.6293 32.147936 37.642183 32.147682 37.654297 32.148438 C 37.669793 32.149419 37.681641 32.161924 37.681641 32.179688 C 37.681641 32.223529 37.543391 32.277766 37.511719 32.246094 C 37.492443 32.226818 37.501265 32.18184 37.527344 32.167969 C 37.547186 32.157481 37.580847 32.149942 37.617188 32.148438 z M 37.914062 32.148438 C 37.950974 32.147851 37.991883 32.1579 38.013672 32.179688 C 38.080872 32.246887 37.988188 32.283596 37.894531 32.226562 C 37.867697 32.210312 37.845703 32.189615 37.845703 32.181641 C 37.845703 32.159511 37.877152 32.149023 37.914062 32.148438 z M 38.548828 32.451172 C 38.566738 32.446816 38.581012 32.454722 38.587891 32.472656 C 38.612458 32.536228 38.430617 32.683707 38.166016 32.816406 C 37.897518 32.951109 37.739328 32.98264 37.564453 32.935547 C 37.521404 32.92383 37.454277 32.897287 37.414062 32.876953 C 37.325282 32.831977 37.123028 32.673693 37.089844 32.623047 C 37.064143 32.584004 37.065695 32.522289 37.091797 32.513672 C 37.10049 32.510815 37.161291 32.561126 37.226562 32.625 C 37.44517 32.838921 37.653144 32.909048 37.878906 32.845703 C 38.078201 32.789804 38.34623 32.63547 38.482422 32.498047 C 38.508028 32.472214 38.530918 32.455528 38.548828 32.451172 z M 38.671875 33.072266 C 38.637711 33.080365 38.507233 33.136923 38.357422 33.208984 C 38.186209 33.29134 38.011441 33.369661 37.966797 33.382812 C 37.758658 33.444116 37.520513 33.393381 37.296875 33.240234 L 37.236328 33.197266 L 37.208984 33.306641 C 37.158717 33.513986 37.0351 33.850626 36.826172 34.347656 C 36.566481 34.965405 36.498428 35.154996 36.449219 35.402344 C 36.428053 35.508851 36.403338 35.631082 36.394531 35.673828 C 36.385838 35.716575 36.364412 35.781774 36.345703 35.818359 L 36.3125 35.884766 L 36.482422 36.015625 C 36.898661 36.337716 36.987059 36.417921 37.115234 36.580078 C 37.242642 36.741237 37.320523 36.957259 37.298828 37.087891 C 37.284844 37.173043 37.255393 37.228328 37.185547 37.300781 L 37.126953 37.361328 L 37.191406 37.421875 C 37.274972 37.498902 37.51063 37.615555 37.636719 37.642578 C 37.753242 37.667523 37.90569 37.670044 38.107422 37.650391 C 38.190458 37.642454 38.308367 37.617473 38.375 37.595703 C 38.558345 37.53542 38.790292 37.423113 38.828125 37.375 C 38.886103 37.301299 38.91254 37.176205 38.988281 36.611328 C 39.033938 36.270755 39.06224 36.169273 39.152344 36.023438 C 39.232772 35.893271 39.295575 35.813668 39.486328 35.605469 L 39.626953 35.453125 L 39.572266 35.277344 C 39.501362 35.054767 39.34829 34.673914 39.185547 34.310547 C 39.025333 33.952777 38.838801 33.496513 38.755859 33.263672 C 38.72071 33.165026 38.687726 33.079409 38.681641 33.072266 C 38.680885 33.071368 38.676756 33.071109 38.671875 33.072266 z M 39.53125 33.929688 C 39.501392 33.929687 39.524629 33.966832 39.628906 34.087891 C 39.689492 34.158228 39.763968 34.257671 39.794922 34.310547 C 39.853807 34.411233 39.857781 34.415319 39.890625 34.394531 C 39.906499 34.384327 39.89485 34.355805 39.833984 34.265625 C 39.756806 34.151256 39.556346 33.929688 39.53125 33.929688 z M 36.412109 34.078125 C 36.395479 34.078125 36.247752 34.327059 36.15625 34.509766 C 36.106965 34.608222 36.097672 34.638535 36.113281 34.648438 C 36.124242 34.65524 36.136845 34.660156 36.140625 34.660156 C 36.144782 34.660024 36.209616 34.534724 36.283203 34.380859 C 36.356753 34.226995 36.418927 34.096004 36.421875 34.089844 C 36.424827 34.083797 36.420046 34.078125 36.412109 34.078125 z M 10.480469 34.625 L 10.492188 34.625 C 10.498612 34.625042 11.066511 34.628278 11.755859 34.632812 C 12.445207 34.637348 13.21948 34.643019 13.476562 34.644531 L 13.945312 34.646484 L 13.947266 35.865234 C 13.948834 36.53477 13.951168 37.287483 13.951172 37.539062 L 13.951172 37.996094 L 13.939453 37.996094 C 13.933028 37.995863 13.160126 37.890827 12.222656 37.761719 C 11.28519 37.632572 10.50858 37.525024 10.498047 37.523438 L 10.480469 37.521484 L 10.480469 36.072266 L 10.480469 34.625 z M 14.365234 34.669922 L 16.103516 34.673828 C 17.060159 34.675238 18.098478 34.676181 18.410156 34.677734 L 18.976562 34.681641 L 18.976562 36.689453 L 18.976562 38.699219 L 18.966797 38.699219 C 18.961506 38.698977 17.925514 38.55328 16.664062 38.375 L 14.371094 38.050781 L 14.371094 37.242188 C 14.371094 36.797738 14.368755 36.037636 14.367188 35.552734 L 14.365234 34.669922 z M 40.068359 35.472656 C 40.065052 35.471853 40.057899 35.476816 40.048828 35.484375 C 40.036356 35.49458 40.027344 35.50479 40.027344 35.507812 C 40.027344 35.510915 40.036734 35.513672 40.048828 35.513672 C 40.061301 35.513672 40.072266 35.50151 40.072266 35.488281 C 40.072266 35.478266 40.071666 35.473459 40.068359 35.472656 z M 35.650391 36.111328 C 35.605409 36.114196 35.578789 36.142955 35.314453 36.421875 C 35.204242 36.538133 35.18624 36.551152 34.984375 36.648438 C 34.837616 36.719189 34.759118 36.766766 34.730469 36.800781 L 34.6875 36.849609 L 34.697266 37.015625 C 34.726368 37.500028 34.728131 37.471315 34.693359 37.595703 C 34.653032 37.739363 34.645571 37.902628 34.677734 37.941406 C 34.716097 37.987668 34.781829 38.007357 35.119141 38.0625 C 35.551991 38.133253 35.652572 38.157442 35.921875 38.261719 C 36.201295 38.369889 36.288523 38.39853 36.386719 38.414062 C 36.484986 38.429559 36.63748 38.418971 36.732422 38.390625 C 36.873134 38.348823 36.965206 38.252011 37.015625 38.091797 C 37.040192 38.01322 37.040191 38.002495 37.017578 37.933594 C 36.982051 37.825386 36.864628 37.62916 36.720703 37.4375 C 36.521182 37.171837 36.385423 36.965401 36.185547 36.621094 C 35.931563 36.183595 35.858878 36.111593 35.671875 36.111328 C 35.663947 36.111317 35.656817 36.110918 35.650391 36.111328 z M 39.492188 36.169922 L 39.455078 36.234375 C 39.401106 36.32875 39.391472 36.378136 39.339844 36.851562 C 39.317167 37.058265 39.276772 37.262685 39.1875 37.621094 C 39.069163 38.09612 39.078648 38.205585 39.248047 38.386719 C 39.322126 38.4659 39.351689 38.485462 39.421875 38.503906 C 39.498977 38.524316 39.705057 38.504396 39.808594 38.466797 C 39.926931 38.423861 40.042512 38.341721 40.265625 38.142578 C 40.555817 37.883605 40.625883 37.835675 40.902344 37.689453 C 41.206785 37.528407 41.3125 37.450051 41.3125 37.388672 C 41.3125 37.346757 41.25694 37.24455 41.179688 37.142578 C 41.086106 37.019025 41.034499 36.912715 40.958984 36.685547 C 40.843406 36.337868 40.830007 36.320312 40.654297 36.320312 C 40.543443 36.320313 40.539536 36.321204 40.445312 36.388672 C 40.137433 36.609132 39.839973 36.63458 39.664062 36.453125 C 39.624416 36.412231 39.568568 36.330848 39.541016 36.273438 L 39.492188 36.169922 z "
       transform="matrix(0.26458333,0,0,0.26458333,46.606056,37.595135)" />
  </g>
</svg>
